<svg width="28" height="21" viewBox="0 0 28 21" xmlns="http://www.w3.org/2000/svg">
    <g transform="translate(-14 -18)" fill="none" fill-rule="evenodd">
        <rect stroke="#5C5C5C" fill="#FFF" x=".5" y=".5" width="300" height="56" rx="4"/>
        <g fill-rule="nonzero">
            <path d="M40.833 18H15.167c-.645 0-1.167.522-1.167 1.167v18.666c0 .645.522 1.167 1.167 1.167h25.666c.645 0 1.167-.522 1.167-1.167V19.167c0-.645-.522-1.167-1.167-1.167z" fill="#002781"/>
            <path d="M42 19.167c0-.645-.522-1.167-1.167-1.167h-3.01l-7.49 5.761V18h-4.666v5.761L18.177 18h-3.01c-.645 0-1.167.522-1.167 1.167v1.508l7.14 5.492H14v4.666h7.14L14 36.325v1.508c0 .645.522 1.167 1.167 1.167h3.01l7.49-5.761V39h4.666v-5.761L37.823 39h3.01c.645 0 1.167-.522 1.167-1.167v-1.508l-7.14-5.492H42v-4.666h-7.14L42 20.675v-1.508z" fill="#E6E6E6"/>
            <path fill="#D10D24" d="M42 27.333H29.167V18h-2.334v9.333H14v2.334h12.833V39h2.334v-9.333H42z"/>
            <path d="m25 31-11 7.975c.082.016.166.025.25.025h1.425L25 32.24V31zM30 27l11-7.975a1.307 1.307 0 0 0-.25-.025h-1.425L30 25.761V27zM25 27l-10.624-8a1.17 1.17 0 0 0-.376.856v.179L23.252 27H25zM30 31l10.624 8a1.17 1.17 0 0 0 .376-.856v-.179L31.748 31H30z" fill="#D10D24"/>
        </g>
    </g>
</svg>
