<svg width="27" height="27" viewBox="0 0 27 27" xmlns="http://www.w3.org/2000/svg">
    <path d="M19.714 16.216c-.455 0-.866-.269-1.04-.682a1.093 1.093 0 0 1 .243-1.206 1.138 1.138 0 0 1 1.225-.24c.42.171.695.574.695 1.022 0 .61-.503 1.106-1.124 1.106m-12.427 0c-.455 0-.865-.269-1.04-.682a1.093 1.093 0 0 1 .244-1.206 1.138 1.138 0 0 1 1.226-.24c.42.171.694.575.694 1.022 0 .61-.503 1.106-1.124 1.106m12.83-6.661 2.247-3.828a.455.455 0 0 0 .029-.484.471.471 0 0 0-.838.022L19.278 9.14a14.341 14.341 0 0 0-11.558 0L5.446 5.266a.471.471 0 0 0-.838-.022.455.455 0 0 0 .028.484l2.247 3.83C2.94 11.667.35 15.597 0 20h27c-.35-4.403-2.94-8.334-6.883-10.445" fill="#FFF" fill-rule="nonzero"/>
</svg>
