<svg width="46" height="43" viewBox="0 0 46 43" xmlns="http://www.w3.org/2000/svg">
    <g stroke="#212121" stroke-width="3" fill="none" fill-rule="evenodd">
        <path stroke-linecap="square" d="M7.667 23.455v17.59h30.666v-17.59M7.667 1.955l-5.75 9.772c-.006 2.714 1.82 5.075 4.408 5.703 2.59.627 5.261-.644 6.453-3.07.964 1.98 2.944 3.231 5.111 3.231S22.036 16.34 23 14.36c.964 1.98 2.944 3.231 5.11 3.231 2.168 0 4.148-1.252 5.112-3.231 1.192 2.426 3.864 3.697 6.453 3.07 2.589-.628 4.414-2.989 4.408-5.703l-5.75-9.772H7.667z"/>
        <path d="M19.167 41.045V29.318h7.666v11.727"/>
    </g>
</svg>
