<?xml version="1.0" encoding="utf-8"?>
<!-- Generator: Adobe Illustrator 26.0.2, SVG Export Plug-In . SVG Version: 6.00 Build 0)  -->
<svg version="1.1" id="Layer_1" xmlns="http://www.w3.org/2000/svg" xmlns:xlink="http://www.w3.org/1999/xlink" x="0px" y="0px" width="40" height="49"
	 viewBox="0 0 40 49" style="enable-background:new 0 0 40 49;" xml:space="preserve" >
<g>
	<path class="st0" d="M0.4,20.5v3V26c0,4.7,3.1,8.6,7.2,9.3v9.2H2.2v3h13.9v-3h-5.5v-9.2c4.1-0.8,7.2-4.7,7.2-9.3V12.5H0.4V20.5z
		 M9.1,32.5c-3.1,0-5.7-2.9-5.7-6.5v-2.5h11.4V26C14.8,29.6,12.2,32.5,9.1,32.5z M14.8,15.5v5H3.4v-5H14.8z"/>
	<path class="st0" d="M22.2,12.5V26c0,4.7,3.1,8.6,7.2,9.3v9.2h-5.5v3h13.9v-3h-5.4v-9.2c4.1-0.8,7.2-4.7,7.2-9.3v-2.5v-3v-8H22.2z
		 M36.6,26c0,3.6-2.6,6.5-5.7,6.5c-3.1,0-5.7-2.9-5.7-6.5v-2.5h11.4V26z M25.2,20.5v-5h11.4v5H25.2z"/>
	<rect x="10.4" y="4.2" transform="matrix(0.7434 -0.6689 0.6689 0.7434 -1.6283 9.7561)" class="st0" width="3" height="5.7"/>
	<rect x="25.3" y="5.5" transform="matrix(0.6689 -0.7433 0.7433 0.6689 4.0998 23.205)" class="st0" width="5.7" height="3"/>
	<rect x="18.5" y="0.5" class="st0" width="3" height="7"/>
</g>
</svg>
