<svg width="94" height="137" viewBox="0 0 94 137" xmlns="http://www.w3.org/2000/svg" xmlns:xlink="http://www.w3.org/1999/xlink">
    <defs>
        <path id="7z8x7ispga" d="M0 0h63v97H0z"/>
        <path id="nnlcomxc0c" d="M0 137h94V0H0z"/>
    </defs>
    <g fill="none" fill-rule="evenodd">
        <path d="M0 137v-1h89l-.113 1H0z" fill="#FFF"/>
        <g transform="translate(8)">
            <mask id="zqul1qob2b" fill="#fff">
                <use xlink:href="#7z8x7ispga"/>
            </mask>
            <path d="m22.397 51.47-.06-.207-1.585-.682c.206.361.305.789.547.896.304.135.727.007 1.098-.008m-.546-3.444c-.123.57-.37 1.052-.269 1.444.089.343.57.585.917.906l-.648-2.35m10.903 47.009-.55-.214 1.096-.717c-1.05.038-2.158.187-3.24.08-.804-.079-1.16.216-1.396.859-.11.3-.18.614-.275.948l1.733-.96-.072 1.474.904-.703.314.45 1.657-.886-.581-.079.41-.252m23.543-.681c1.484-.791 1.786-1.111 1.881-1.932-1.11 1.251-2.44 1.84-4.116 1.486-.142-.03-.413.038-.456.134-.278.62-.509 1.26-.755 1.893l.178.04 1.483-1.207c-.03.615-.054 1.07-.077 1.527l.245.102.735-1.004.275.978c.287-.38.452-.71.715-.92.284-.226.66-.34 1.095-.552l-.698-.126.234-.345-.739-.074m-25.28-38.007c2.295 1.41 6.223 1.343 8.267-.179-1.934.536-3.65.133-5.36-.33-1.01-.274-1.936-.072-2.908.51m-6.13-6.4c-.4.497-.87 1.05-1.3 1.631-.345.465-.603.94.123 1.353.16.091.22.385.292.597.623 1.865 1.875 3.285 3.266 4.712l1.547-1.903c-1.093-.939-2.131-1.814-3.147-2.714-.39-.344-.394-.685-.123-1.21.37-.714.512-1.551.703-2.348.045-.19-.035-.51-.177-.628-.879-.733-1.791-1.426-2.718-2.152-.724 1.295-.127 2.1 1.533 2.662m-2.405 3.2c-.325.67-.585 1.17-.813 1.684-.402.904-1.121 1.831-1.085 2.724.038.945.723 1.91 1.274 2.774.417.655 1.034 1.201 1.635 1.712.17.145.712.12.876-.037.754-.732 1.435-1.538 2.046-2.211l-3.933-6.646m6.833 27.304.07.332c1.199.177 2.392.42 3.598.503.564.039 1.173-.168 1.722-.369a164.752 164.752 0 0 0 4.84-1.878c.35-.141.732-.322.968-.596.535-.618.32-1.33-.005-1.957-.088-.169-.528-.271-.776-.228-2.62.457-5.164 1.18-7.518 2.438-.995.532-1.934 1.167-2.899 1.755m19.715-36.683c0 .437.04.878-.007 1.31-.134 1.203-.184 2.433-.486 3.596-.574 2.208-2.884 4.191-4.872 4.32 1.811-1.048 2.842-2.616 3.41-4.371-2.072 1.23-4.197 2.49-6.27 3.722L42 52.213l.046.187c-.8.28-1.584.716-2.405.803a22.625 22.625 0 0 1-4.189.067c-1.481-.12-2.658.334-3.695 1.324 1.835-.443 3.577-.103 5.299.491.292.1.608.202.91.194 3.12-.081 6.24-.189 8.903-2.463-1.072 2.178-2.958 3.262-4.76 4.442 3.215-1.097 6.218-2.471 7.896-5.688.017 3.346-2.109 5.247-4.608 6.902 5.332-1.876 7.381-6.146 8.345-11.255v5.96c1.305-2.68 1.126-5.427.596-8.237.487 1.03.946 2.068 1.212 3.153.265 1.082.336 2.21.508 3.431.605-3.026.87-5.92-.584-8.738.546.8 1.05 1.614 1.385 2.492.33.863.525 1.784.71 2.693.181.899.275 1.815.408 2.723.139-1.177.229-2.344.119-3.492-.193-2.005-.724-3.923-2.117-5.479-.376-.42-.861-.745-1.297-1.113l-.108.131 1.098 1.376-2.267-.815 1.077 2.455c-.921-.708-1.448-1.612-2.537-1.551.18 1.392.413 2.714.504 4.046.093 1.339-.103 2.654-.85 3.982-.03-3.45-.583-6.193-1.413-7.173.464 4.177-.095 6.521-1.899 7.784 1.053-2.294 1.282-4.64.74-7.077m-1.261-5.518c-1.483-1.492-7.799-1.066-9.024.59 1.254 1.144 2.782.95 4.3.84-.581 1.311-1.209 1.68-2.526 1.43-.61-.115-1.186-.41-1.796-.502-.91-.137-1.84-.25-2.755-.214-.608.025-1.232.29-1.367 1.058-.017.097-.135.205-.234.255-.794.408-.963 1.006-.266 1.56.583.461 1.338.852 2.063.96 1.082.159 2.205.04 3.303.04.486 1.895.04 2.632-1.82 3.113-.804.208-1.605.439-2.383.724-.524.193-.795.564-.367 1.152 1.727-.858 3.529-1.083 5.413-.894.85.085 1.702-.085 2.269-.79.704-.876 1.329-1.816 2.073-2.846l.185 3.528c1.31-1.029 2.045-2.436 2.349-3.985l-1.294-1.164.942-.183-.369-1.682.15-.04 1.216 1.812.145-.075-.235-2.083c1.782 1.329 4.278 1.144 5.772-.338.305-.302.625-.682.714-1.075.072-.315-.088-.879-.334-1.03-.857-.53-1.837-.584-2.918-.267l.54.207c-2.31-.368-3.907.642-4.267 2.978-.5-1.157-.192-2.145.52-3.079M35.384 61.86c-2.079.646-3.977 1.364-5.936 1.82-3.867.901-6.859-.41-8.93-3.75-.381-.614-.658-1.293-1.058-1.894-.485-.729-2-.861-2.643-.298l.707.632c-1.447-.306-1.9-.173-2.324.55l1.09.279c-1.871.361-2.102.51-2.075 1.464l1.165-.326c-.434.408-.802.647-1.008.983-.167.27-.295.764-.156.968.172.253.632.407.977.423.302.014.687-.147.91-.36.5-.482.925-1.043 1.439-1.64 0 .287.052.567-.01.82-.212.883-.095 1.187.733 1.593.75.369 1.505.336 2.258-.009.209-.096.47-.275.642-.218.807.268 1.591.604 2.384.915l-.052.144-2.28.238c.315.238.485.384.671.506 2.944 1.92 6.12 3.285 9.573 4.028 2.344.503 4.5.242 6.42-1.28.132-.104.297-.168.262-.149 1.424 1.43 2.668 2.913 4.151 4.1 1.49 1.193 3.22 2.092 4.844 3.12v.1l-4.144-1.124c1.308 1.14 2.829 1.741 4.419 2.213-2.16.126-3.948-.852-5.768-1.835.536.613 1.104 1.175 1.764 1.593.656.417 1.404.69 2.148 1.042-.487.037-.93.05-1.367.107-1.515.195-1.744.335-1.972 1.814-.458 2.975-.067 5.87 1.07 8.661.4.98 1.118 1.544 2.19 1.771 2.729.578 5.396.193 8.038-.45 1.28-.311 2.528-.776 3.762-1.245.562-.214.73-.72.436-1.289-.293-.569-.726-.313-1.147-.18-.69.218-1.373.514-2.081.602-1.48.185-2.781-.21-3.541-1.476l-2.778 2.025-.127-.17c.134-.156.272-.31.401-.47 2.15-2.645 2.918-5.6 1.73-8.845-.664-1.81-1.588-3.528-2.426-5.273-.659-1.372-1.505-2.672-2.006-4.095-.407-1.156-.425-2.446-.607-3.62l-2.867.349-.041-.222c1.128-.512 2.392-.791 3.446-1.893-3.265.4-6.315.67-9.313-.236 2.731-.312 5.486-.447 8.086-1.703-2.177.155-4.246.404-6.318.421-2.053.018-4.1-.233-5.916-1.331 2.417.02 4.81-.012 7.141-.721-2.713.32-5.351-.098-7.976-.684-.149-.033-.34-.08-.457-.02-1.17.606-2.208 1.372-3.008 2.409l.058.313 7.417.802M0 96.862l15.83-32.837-.9-.188c-1.475-.307-2.089-1.105-1.986-2.58.152-2.196 2.169-4.45 4.356-4.78.677-.103 1.384-.016 2.207-.016l1.23-2.518c-.853-.304-.97-.863-.656-1.613.06-.14-.014-.379-.102-.53-.552-.95-.394-1.715.484-2.349.137-.098.277-.292.288-.45.136-2 1.08-2.647 3.063-2.082.071.02.15.017.283.03 1.057-2.175 2.12-4.356 3.177-6.54C33.681 27.19 40.094 13.972 46.472.738c.376-.78.866-.827 1.654-.658-.189.426-.36.84-.554 1.242a84324.635 84324.635 0 0 1-22.158 45.737c-.188.387-.279.64.143.978.526.42 1.17.899 1.362 1.482a3.809 3.809 0 0 1-.326 3.153c-.343.58-.178.9.28 1.218.382.266.755.556 1.166.772 1.336.701 1.384.666 2.282-.468 1.094-1.384 2.683-1.923 4.31-2.32 1.512-.371 3.069-.569 4.58-.95.968-.244 1.888-.681 2.803-1.136-2.558-.783-5.008-.41-7.455.568-.807-.967-1.38-2.025-1.47-3.247.436-.197.787-.356 1.198-.54 1.183.83 4.142.095 4.276-1.263-.288.026-.559.088-.824.067-.845-.07-1.708-.088-2.525-.286-.532-.129-.972-.39-1.266.332-.84-.863-1.357-1.737-1.316-2.891.013-.361-.132-.746-.278-1.09-.34-.806-.102-1.315.751-1.516.911-.215 1.823-.428 2.73-.658.686-.174 1.43-.217 1.779-1.035.098-.23.485-.391.771-.478 1.117-.34 2.238-.675 3.375-.94.666-.154 1.22-.314 1.055-1.388 1.481.24 2.875.361 4.207.714.93.246 1.791.394 2.732.16.362-.089.773-.02 1.156.02.513.055.895.272.796.899 3.373.178 5.676 1.97 7.403 4.664l-1.306-1.07c1.374 1.463 2.35 3.035 2.145 5.116l-1.193-2.27c1.483 3.688 2.08 7.379.583 11.193v-3.294l-.09-.02-.655 3.482c-3.217-.472-5.46.781-6.87 3.586l-.177-.103.28-1.82c-2.07 3.324-1.677 6.777-.657 10.39l-2.167-1.893c.083 1.34.096 2.51.237 3.665.357 2.927 1.26 5.698 2.638 8.306.348.659.784 1.284 1.256 1.863.614.752 1.396 1.308 2.437 1.072 1.15-.26 2.08-.967 2.214-2.139.15-1.309.187-2.701-.105-3.971-.3-1.302-.95-2.562-1.638-3.728-1.252-2.121-2.59-4.187-3.153-6.625-.873-3.783 1.789-6.914 5.537-6.46.737.09 1.442.442 2.13.765-2.501-.172-2.769-.15-3.775.466 1.14 0 2.155-.115 3.133.025 1.982.281 3.4 2.115 3.028 3.824-.113.515-.403 1-.667 1.47-.214.38-.516.712-.769 1.073-.956 1.367-.968 1.906-.005 3.406-1.476-.645-1.796-1.939-2.354-3.133v1.466c-1.447-1.616-1.578-3.925-.24-5.378.245.258.477.518.727.76.31.302.687.615 1.056.163.332-.404.067-.773-.296-1.053-1.15-.89-2.96-.222-3.518 1.33-.471 1.307-.431 2.66-.084 3.976.269 1.016.712 1.987 1.069 2.981.739 2.062 1.628 4.087 2.162 6.201.513 2.028.1 3.995-1.38 5.65-1.192 1.336-2.592 1.756-4.28 1.15-.654-.235-1.284-.536-2.153-.903-.069 1.021-.24 1.96-.164 2.88.082.988 1.109 1.597 2.256 1.378.78-.148 1.552-.429 2.272-.767 1.113-.523 1.983-.361 2.716.625.15.201.29.476.5.557.81.314 1.104.832 1.059 1.713-.133 2.553-.177 5.11-.27 7.665-.009.252-.113.503-.179.753-.15.576-.477.81-1.121.797-2.136-.044-4.273-.016-6.41-.019-.254 0-.508-.021-.808-.035-.079-1.312.068-2.517.706-3.637.238-.42.528-.54 1.026-.41.62.163 1.289.332 1.912.268 1.9-.197 2.505-1.859 1.712-3.537-.066-.139-.542-.176-.799-.123-3.065.638-6.149 1.111-9.292 1.037-.987-.023-1.98-.079-2.955-.22-.344-.05-.774-.325-.944-.623-1.072-1.873-1.901-3.847-2.233-5.998-.024-.15-.077-.294-.176-.661-1.226.395-2.46.69-3.6 1.193-.908.4-.953 1.246-.15 1.856.738.561 1.594.968 2.368 1.486.21.14.47.458.443.661-.337 2.616-.771 5.212-1.724 7.697-.272.708-.629 1.026-1.474 1.008-3.074-.066-6.15-.026-9.224-.03-.202 0-.403-.039-.657-.064.25-1.707.725-3.238 2.23-4.209.229-.148.73-.175.93-.026 1.91 1.427 3.725 1.138 5.047-.865.199-.3.36-.626.576-1.008-.247-.167-.473-.322-.702-.473-2.478-1.63-4.787-3.479-6.252-6.082-2-3.554-1.959-3.566 1.126-6.146 2.013-1.683 4.485-2.467 7.021-3.035.221-.05.439-.113.787-.204-1.307-1.251-2.656-2.115-4.434-1.887-.625.08-1.06-.04-1.418-.52-.278-.374-.646-.715-.807-1.134-.346-.898-.986-1.21-1.893-1.42-3.279-.757-6.142-2.352-8.719-4.492-.393-.327-.921-.51-1.409-.704-.309-.123-.662-.128-.988-.216-.295-.08-.579-.201-.92-.323-1.001 2.061-1.997 4.103-2.985 6.149-4.183 8.664-8.374 17.325-12.526 26.004-.374.784-.898.68-1.663.604" fill="#FFF" mask="url(#zqul1qob2b)"/>
        </g>
        <path d="M67.54 23.345C62.377 19.234 56.619 16.79 50 16.08c.43-.9.835-1.765 1.258-2.622.815-1.648.816-1.61 2.675-1.403 5.728.637 10.88 2.707 15.493 6.144.102.076.213.141.405.268L74.262 9l3.967 3.013c-.508 1.097-1.01 2.188-1.52 3.276-.884 1.891-1.774 3.78-2.66 5.671-.138.297-.333.561.078.861 3.07 2.242 6.153 4.49 9.857 5.566 1.941.564 3.974.815 6.016 1.217-.561 1.379-1.15 2.887-1.809 4.364-.081.182-.546.28-.83.274-4.684-.11-8.773-1.9-12.565-4.502-1.063-.73-2.114-1.477-3.275-2.29L67.042 36l-4.174-2.835 4.673-9.82M11.271 28.367l-1.167-.265c.394 1.89 1.81 2.834 3.175 2.197 1.104-.515 1.453-1.97.707-2.948-.49-.64-1.194-.493-1.74.41-.534-.64-.659-1.39-.273-2.033.252-.421.861-.616 1.405-.975-.208-1.806-.117-2.264.728-3.075 1.183.585 1.357 1.715 1.433 2.887 1.78-.114 2.443.775 1.902 2.19-.56-.026-1.156-.242-1.498-.03-.623.387-.556 1.134-.323 1.79.485 1.362 2.364 1.73 3.3.583.431-.53.625-1.264.927-1.905l-.242-.204-1 .493v-2.69l1.155.534c-.167-.636-.162-1.18-.421-1.499-.687-.848-.622-1.813-.57-2.775.034-.65-.153-1.025-.774-1.232-1.703-.568-3.387-1.199-5.096-1.751-.427-.138-.919-.12-1.377-.094-1.512.082-2.442 1.061-2.389 2.617.03.856.253 1.705.4 2.638l-.942.359c-.127-1.285-.378-2.454-.325-3.608.076-1.688 1.373-2.818 3.097-2.933 1.927-.13 3.7.495 5.45 1.213.614.252 1.218.529 1.882.818v-1.73h4.616v1.683c.411-.167.748-.329 1.1-.445 1.537-.505 3.048-1.153 4.622-1.461 3.289-.645 5.107 1.24 4.617 4.63-.082.567-.268 1.118-.423 1.748l-.83-.264c.152-.797.332-1.535.425-2.284.216-1.73-.786-2.996-2.488-2.963-1.062.02-2.126.301-3.172.543-.62.144-1.194.495-1.812.657-1.613.423-2.437 1.337-2.086 3.14.051.258-.148.579-.26.858-.258.639-.533 1.27-.801 1.903l.203.163.915-.39v2.562l-.925-.362c-.06 1.642.932 2.754 2.314 2.682.942-.05 1.638-.695 1.773-1.663.08-.575.06-1.214-.516-1.435-.366-.14-.865.084-1.422.162-.193-.478-.25-1.141.193-1.778.424-.61 1.006-.641 1.635-.395.5-2.249.603-2.447 1.55-2.963 1.032.911.873 2.085.692 3.064.55.377 1.173.594 1.44 1.038.375.624.204 1.367-.13 1.81-.506-.227-1.003-.652-1.329-.543-.382.129-.732.68-.888 1.125-.26.742.12 1.548.77 1.987.714.483 1.644.527 2.223-.047.519-.513.903-1.168 1.347-1.76l-.156-.22c-.358.06-.715.12-1.176.2l.685-2.622 1.004.946V24.03l1.595.624c-.068.246-.114.468-.19.679-.961 2.67-1.944 5.333-2.877 8.014-.182.521-.43.655-.941.653-5.994-.018-11.988-.019-17.981.001-.521.002-.76-.15-.94-.664-.944-2.704-1.933-5.393-2.903-8.088-.06-.168-.1-.345-.168-.59l1.615-.638v2.561l.942-.859.714 2.645" fill="#FFF"/>
        <mask id="jw6lfq1zyd" fill="#fff">
            <use xlink:href="#nnlcomxc0c"/>
        </mask>
        <path fill="#FFF" mask="url(#jw6lfq1zyd)" d="M0 100h89v-1H0zM45 120.01c.82 0 1.602-.034 2.378.023.203.015.444.276.57.49 1.143 1.926 2.264 3.867 3.394 5.803.123.212.26.415.5.794v-7.052H54v10.921c-.74 0-1.475.036-2.201-.023-.205-.016-.45-.27-.574-.482-1.148-1.954-2.272-3.924-3.405-5.888-.138-.238-.29-.466-.576-.676v7.03H45v-10.94zM69 120.01c.822 0 1.607-.035 2.385.025.2.016.43.3.56.518 1.132 1.906 2.243 3.824 3.363 5.738.126.214.263.42.519.827v-7.054H78v10.925c-.766 0-1.548.039-2.322-.028-.193-.016-.398-.346-.532-.576-1.146-1.957-2.275-3.925-3.412-5.89-.124-.215-.26-.423-.512-.833v7.284H69V120.01zM20.374 126.477c.005-2.017-1.403-3.443-3.397-3.44-1.944.002-3.384 1.43-3.405 3.375-.022 1.983 1.41 3.462 3.378 3.488 1.979.027 3.42-1.414 3.424-3.423M16.964 121c3.588 0 5.989 2.155 6.035 5.42.046 3.17-2.562 5.581-6.035 5.58-3.445-.001-5.963-2.342-5.964-5.544 0-3.286 2.37-5.455 5.964-5.456M38.162 122.093v2.187h4.34v2.123h-4.34v2.44H43V131h-7v-11h6.744v2.093zM61.488 123.25l-1.19 3.204h2.355l-1.165-3.204m-.91-3.154c.054-.02.077-.033.102-.035 1.745-.149 1.744-.148 2.42 1.475 1.2 2.878 2.402 5.756 3.6 8.635.098.235.177.479.3.814-.8 0-1.524.03-2.244-.022-.178-.012-.455-.271-.489-.455-.31-1.692-1.3-2.077-2.86-1.946-1.889.158-1.91.033-2.63 1.887-.156.398-.342.575-.772.548-.627-.039-1.258-.01-2.005-.01l4.578-10.891M89 116.255c-.148.221-.277.519-.45.642-.155.109-.358.026-.54.026-29.03 0-58.058.002-87.088-.024-.325 0-.955.546-.92-.899h88.856l.142.255M72.014 31c2.301 4.663 5.02 8.858 7.986 13-.962-.348-1.947-.644-2.882-1.053-2.893-1.266-5.4-3.15-7.91-5.02-.133-.098-.252-.41-.192-.538.962-2.097 1.955-4.18 2.998-6.389M9.887 121.834l-1.696 1.31c-1.597-1.396-3.42-1.427-4.705-.124-1.273 1.292-1.262 3.753.021 5.017 1.284 1.264 3.08 1.149 4.755-.339L10 128.881c-.886 1.649-3.305 2.476-5.659 1.972-2.502-.536-4.147-2.448-4.327-5.03-.172-2.472 1.226-4.625 3.532-5.442 2.38-.842 5.079-.257 6.34 1.453M24 120.024h2.453l2.498 7.343.169-.02 2.003-5.879c.501-1.469.502-1.468 1.978-1.468H34c-.073.251-.12.462-.195.66-1.21 3.205-2.46 6.394-3.61 9.622-.308.865-.85.646-1.406.708-.554.061-.806-.147-1.012-.717-1.146-3.175-2.346-6.328-3.525-9.49-.088-.237-.16-.482-.252-.76M65 26l-3.361 7c-2.977-1.666-6.078-2.804-9.639-3.24 4.13-2.368 8.333-3.559 13-3.76M62 3c4.198.798 7.688 2.771 11 5.27L70.016 15C67.909 10.53 65.546 6.428 62 3M20.996 109.475c.494-1.424.942-2.659 1.344-3.908.139-.432.36-.564.812-.566C25 104.993 25 104.978 25 106.775v5.16h-1.624v-4.406l-.177-.049c-.565 1.488-1.13 2.976-1.682 4.425-.874.257-1.326 0-1.574-.859-.35-1.21-.847-2.38-1.414-3.552v4.435H17v-6.909c.708 0 1.408-.033 2.1.024.16.014.354.312.432.516.383 1 .73 2.013 1.095 3.02.09.247.2.487.37.895M43 30a25.48 25.48 0 0 1 5.116-3.404C52.615 24.31 57.413 23.101 62.46 23c.839-.016 1.693.695 2.54 1.07l-.093.25c-1.303.15-2.612.266-3.908.457-4.452.655-8.645 2.085-12.59 4.21-.7.376-1.381.645-2.194.68-1.032.043-2.058.207-3.215.333M79.863 13c1.562.934 2.996 1.875 4.512 2.676 1.49.788 3.064 1.434 4.625 2.154-3.864 1.041-7.828 1.293-12 1.12L79.863 13M83.294 122.136H80V120h9v2.092h-3.21V131h-2.496zM58.108 108.01c.004-1.368-.896-2.372-2.113-2.357-1.2.015-2.077.98-2.095 2.304-.018 1.356.877 2.387 2.086 2.403 1.225.015 2.119-.974 2.122-2.35M56.037 112c-2.401.007-4.013-1.579-4.037-3.972-.023-2.384 1.586-4.01 3.988-4.028 2.41-.018 4.011 1.57 4.012 3.978 0 2.433-1.559 4.015-3.963 4.022M46 24c.987-1.902 1.963-3.81 2.976-5.698.089-.166.415-.308.626-.302 3.299.093 6.397.979 9.398 2.352-4.545.434-8.798 1.774-13 3.648M35.793 106.464v3.944c1.184.05 2.327.14 3.015-.898.482-.727.475-1.522-.051-2.22-.713-.945-1.82-.88-2.964-.826M34 112v-6.955c1.708-.025 3.433-.213 5.067.424 1.449.566 1.945 1.705 1.933 3.043-.013 1.45-.86 2.698-2.342 3.015-1.49.319-3.061.325-4.658.473M63.742 107.992c.753.006 1.518.223 2.018-.435.127-.167.117-.58-.023-.731-.554-.598-1.291-.357-1.995-.32v1.486zM68 111.836c-1.559.465-2.442-.08-2.914-1.348-.128-.343-.349-.67-.586-.963-.12-.148-.372-.207-.564-.306-.081.16-.227.32-.232.482-.027.71-.012 1.423-.012 2.189H62V105c1.376.09 2.766.112 4.132.293.903.12 1.442.74 1.537 1.597.095.86-.223 1.545-1.1 1.96-.118.055-.226.125-.389.216l1.82 2.77zM10.685 107.991c.491 0 .956.102 1.322-.03.333-.12.56-.493.835-.755-.283-.248-.525-.6-.861-.714-.37-.125-.826-.029-1.296-.029v1.528zm-.05 4.004c-.499 0-.846.003-1.192-.001-.13-.001-.26-.017-.443-.03V105c1.337.067 2.621.066 3.885.216.876.104 1.51.631 1.693 1.49.217 1.014-.16 1.645-1.448 2.393l1.87 2.89c-.706 0-1.307.034-1.898-.02-.17-.015-.353-.26-.464-.437-.403-.643-.762-1.31-1.176-1.946-.104-.159-.356-.235-.54-.348-.096.177-.266.351-.274.532-.032.713-.014 1.427-.014 2.225zM67 15c-.723-.385-1.454-.759-2.167-1.164a1.54 1.54 0 0 1-.53-.495c-2.118-3.388-4.724-6.283-8.135-8.372-.06-.036-.1-.107-.168-.18.066-.157.125-.321.202-.476.199-.405.405-.806.66-1.313 4.566 3.008 7.74 7.163 10.138 12M3.041 109.257h1.85c-.3-.751-.568-1.416-.835-2.082l-.179.015-.836 2.067M8 111.967c-.42 0-.742-.038-1.05.008-.74.11-1.17-.141-1.313-.817-.085-.398-.34-.588-.804-.528a3.174 3.174 0 0 1-.646.002c-1.108-.086-2.165-.104-2.17 1.303H0c.706-1.553 1.385-3.049 2.066-4.544.218-.478.44-.953.66-1.43.392-.853.972-1.122 1.93-.871.13.034.283.15.335.263 1 2.175 1.984 4.354 3.009 6.614M53 10.764 55.073 6c1.812.913 5.847 5.019 6.927 7l-9-2.236M27 105h4.825v1.392h-3.136v1.353h2.964v1.368h-2.967v1.46H32V112h-5zM76.049 21.119c1.338 0 2.677.022 4.015-.004 3.764-.076 7.45-.661 11.01-2.02.186-.07.407-.118.596-.083.759.14 1.51.317 2.265.48l.065.235c-1.653.607-3.28 1.31-4.963 1.801-3.298.961-6.68 1.32-10.095 1.47-1.342.059-1.968-1.023-2.942-1.542l.049-.337M81.811 106.468h-3.044c-.271 1.287-.233 1.335.984 1.336h1.83c.25 1.341.246 1.346-.994 1.346h-1.863v1.457H82V112h-4.991v-3.322c0-1.005.02-2.01-.008-3.015-.014-.485.146-.665.667-.649 1.067.034 2.14.062 3.203-.007.796-.052 1.12.185.976.954-.023.122-.019.25-.036.507M82 24.867c3.749-.53 7.372-1.28 11-2.867-.558 1.335-1.043 2.496-1.53 3.655-.586 1.396-.59 1.43-2.041 1.291-2.362-.225-4.65-.78-6.832-1.751-.207-.092-.398-.218-.597-.328M79 33c2.856 1.071 5.77 1.819 9 1.888L85.771 40c-2.81-1.94-4.98-4.283-6.771-7M75.953 105.188l-1.087 1.044c-1.774-.8-2.757-.684-3.471.4-.622.945-.493 2.344.287 3.105.851.83 1.908.8 3.159-.128l1.159 1.09c-.86 1.524-4.078 1.82-5.75.29-1.606-1.47-1.681-4.296-.128-5.834 1.547-1.532 4.474-1.56 5.831.033M84.483 43c-4.289-3.218-7.108-7.431-9.483-12 1.166.694 2.442 1.11 3.223 2.425 1.728 2.907 3.88 5.51 6.583 7.638.151.119.228.46.18.661-.097.407-.303.79-.503 1.276M83 110.89l1.325-1.024c.454.188.973.536 1.52.584.372.032.957-.264 1.136-.58.294-.518-.222-.826-.679-1.012-.464-.19-.954-.323-1.425-.501-.9-.342-1.402-.983-1.44-1.928-.036-.925.521-1.73 1.437-2.123 1.311-.563 2.876-.346 4.126.626l-.974 1.053c-.693-.17-1.242-.388-1.797-.408-.268-.01-.713.315-.777.562-.055.214.25.636.507.78.478.27 1.045.386 1.56.601 1.065.445 1.473 1.053 1.45 2.07-.022 1.046-.538 1.79-1.532 2.136-1.575.546-3.031.281-4.437-.836M51 105.005v1.46h-3.08v1.46h2.854v1.368H47.9V112h-1.898v-3.005c0-1.134.005-2.268-.002-3.403-.002-.33.017-.596.505-.592 1.472.014 2.945.005 4.495.005M19 11.384l1.561.411.212-.173L20.25 10h2.56l-.684 1.577.185.216 1.686-.417v1.612l-1.755-.438c.14 1.178.744 1.852 1.758 2.45h-4.925c.919-.58 1.548-1.259 1.567-2.45L19 12.957v-1.573zM10 15.595c-.622.204-1.006.434-1.325.402-.278-.028-.739-.415-.668-.53.132-.21.577-.443.925-.466.25-.017.553.292 1.068.594M36 22.494c-.513.25-.837.53-1.094.504-.33-.031-.606-.306-.906-.476.286-.185.54-.475.87-.52.25-.033.599.247 1.13.492M25.495 18c-.24-.565-.495-.907-.495-1.25 0-.268.343-.79.483-.748.207.062.478.49.515.824.03.264-.251.62-.503 1.174M37 20.557c-.552.221-.912.477-1.168.44-.322-.048-.559-.337-.832-.521.278-.17.566-.485.83-.476.33.011.638.287 1.17.557M34.479 18c-.238-.559-.513-.931-.476-1.185.05-.34.322-.746.535-.813.13-.04.465.512.462.79-.004.335-.27.662-.521 1.208M15 15.559c-.582.218-.944.461-1.263.44-.27-.018-.493-.342-.737-.53.307-.168.595-.443.928-.468.254-.02.564.279 1.072.558M8 22.519c-.586.248-.947.514-1.196.478-.333-.049-.748-.315-.802-.522-.037-.14.481-.471.76-.475.322-.004.652.257 1.238.519M8 20.506c-.52.245-.856.52-1.105.492-.334-.038-.6-.312-.895-.484.289-.182.542-.465.878-.511.241-.033.592.251 1.122.503M7.443 18c-.223-.597-.464-.952-.442-1.268.02-.268.34-.49.528-.732.168.3.446.583.47.907.02.257-.271.564-.556 1.093M27.453 17c-.227-.605-.47-.967-.452-1.294.014-.275.37-.757.505-.702.207.086.459.525.493.865.024.251-.268.584-.546 1.131M30 15.521c-.524.234-.884.51-1.13.476-.336-.047-.584-.33-.87-.512.302-.173.575-.447.916-.483.245-.027.58.264 1.084.52M12 14.488c-.577.26-.902.519-1.213.512-.27-.006-.525-.314-.787-.488.28-.181.527-.464.849-.509.247-.034.586.233 1.151.485M35.464 18c.27.55.562.897.534 1.147-.039.342-.3.78-.507.85-.136.046-.46-.458-.49-.768-.025-.287.229-.643.463-1.229M6.491 20c-.253-.594-.527-.97-.487-1.208.056-.336.326-.726.54-.79.13-.04.454.489.456.767.003.322-.252.65-.509 1.231M17.62 16c.138.192.39.39.38.575-.01.16-.316.422-.496.425-.176.003-.49-.254-.503-.414-.016-.185.229-.388.36-.583L17.62 16M17 15.498c-.573.254-.897.507-1.211.502-.269-.004-.527-.306-.789-.476.274-.185.515-.476.832-.521.249-.035.592.237 1.168.495M33.552 15c.228.6.467.95.447 1.264-.018.267-.334.492-.518.736-.172-.293-.452-.566-.48-.886-.022-.255.265-.567.551-1.114M31.504 16c-.257-.555-.517-.87-.503-1.156.014-.297.294-.564.457-.844.191.273.49.508.539.83.037.248-.24.604-.493 1.17"/>
    </g>
</svg>
