<svg width="157" height="39" viewBox="0 0 157 39" xmlns="http://www.w3.org/2000/svg">
    <g fill="#FFF" fill-rule="evenodd">
        <path d="M148.6 19.1h2.4v-4.3h3.1v4.3h2.8v2.3h-2.8V29c0 .3 0 .6.1.9 0 .2.1.4.2.6.1.2.3.3.4.4.2.1.5.1.8.1h.7c.2 0 .4-.1.7-.1v2.4c-.3.1-.7.1-1 .1-.3.1-.7.1-1 .1-.8 0-1.5-.1-2-.2-.5-.2-.9-.4-1.2-.7-.3-.3-.5-.7-.6-1.1-.1-.4-.2-1-.2-1.6v-8.4h-2.4v-2.4zm-8.1 12.1c.7 0 1.3-.2 1.8-.4.5-.3.9-.7 1.3-1.2s.6-1 .7-1.6c.2-.6.2-1.2.2-1.8 0-.6-.1-1.2-.2-1.8-.2-.6-.4-1.1-.7-1.6-.3-.5-.8-.8-1.3-1.1-.5-.3-1.1-.4-1.8-.4s-1.3.2-1.8.4c-.5.3-.9.7-1.3 1.1-.3.5-.6 1-.7 1.6-.2.6-.2 1.2-.2 1.8 0 .6.1 1.2.2 1.8.1.6.4 1.1.7 1.6.3.5.8.9 1.3 1.2.5.3 1.1.4 1.8.4zm0 2.5c-1.1 0-2.1-.2-3-.6-.9-.4-1.6-.9-2.2-1.5-.6-.7-1.1-1.5-1.4-2.4-.3-.9-.5-1.9-.5-3s.2-2.1.5-3c.3-.9.8-1.7 1.4-2.4.6-.7 1.4-1.2 2.2-1.5.8-.3 1.9-.6 3-.6s2.1.2 3 .6c.9.4 1.6.9 2.2 1.5.6.7 1.1 1.5 1.4 2.4.3.9.5 1.9.5 3s-.2 2.1-.5 3c-.3.9-.8 1.7-1.4 2.4-.6.7-1.4 1.2-2.2 1.5-.9.4-1.9.6-3 .6zm-12.7-.4h3.1V13.7h-3.1v19.6zm-6 0h3.1V19.1h-3.1v14.2zm0-16.6h3.1v-3h-3.1v3zm-5.5 9.5c0-.6-.1-1.3-.3-1.9-.2-.6-.4-1.1-.8-1.6s-.8-.8-1.2-1.1c-.5-.3-1.1-.4-1.7-.4-1.3 0-2.3.4-3 1.4-.7.9-1 2.1-1 3.7 0 .7.1 1.4.3 2 .2.6.4 1.1.8 1.6.3.4.8.8 1.3 1 .5.3 1 .4 1.7.4s1.3-.2 1.8-.4c.5-.3.9-.7 1.2-1.1.3-.5.5-1 .7-1.6.1-.7.2-1.3.2-2zm-10.9-7.1h3V21h.1c.4-.8 1-1.4 1.8-1.8.8-.4 1.6-.5 2.6-.5 1.1 0 2.1.2 2.9.6.8.4 1.5.9 2.1 1.6.5.7 1 1.5 1.2 2.4.3.9.4 1.9.4 2.9s-.1 1.9-.4 2.8c-.3.9-.6 1.7-1.1 2.4-.5.7-1.1 1.2-1.9 1.6-.8.4-1.7.6-2.7.6-.4 0-.9-.1-1.4-.1-.4-.1-.9-.2-1.3-.4s-.8-.4-1.2-.7c-.4-.3-.7-.6-.9-1h-.1v7.1h-3.1V19.1zm-10.6 0h2.4v-4.3h3.1v4.3h2.8v2.3h-2.8V29c0 .3 0 .6.1.9 0 .2.1.4.2.6.1.2.3.3.4.4.2.1.5.1.8.1h.7c.2 0 .4-.1.7-.1v2.4c-.3.1-.7.1-1 .1-.3.1-.7.1-1 .1-.8 0-1.5-.1-2-.2-.5-.2-.9-.4-1.2-.7-.3-.3-.5-.7-.6-1.1-.1-.4-.2-1-.2-1.6v-8.4h-2.4v-2.4zm-10.3 9.7c.1.9.4 1.5 1 1.9.6.4 1.3.5 2.2.5.3 0 .6 0 1-.1s.7-.1 1-.3c.3-.1.6-.3.8-.6.2-.3.3-.6.3-1s-.2-.7-.4-1c-.3-.3-.6-.4-1-.6-.4-.2-.9-.3-1.5-.4-.5-.1-1.1-.2-1.7-.4-.6-.1-1.2-.3-1.7-.5s-1-.4-1.5-.8c-.4-.3-.8-.7-1-1.2-.3-.5-.4-1.1-.4-1.8 0-.8.2-1.4.6-1.9.4-.5.9-.9 1.4-1.3.6-.3 1.2-.5 1.9-.7.7-.2 1.4-.2 2-.2.7 0 1.4.1 2.1.2.7.2 1.3.4 1.8.8.5.3 1 .8 1.3 1.4.4.5.6 1.2.7 2h-3.3c-.2-.8-.5-1.3-1-1.5-.5-.3-1.2-.4-1.9-.4-.2 0-.5 0-.8.1-.3.1-.6.1-.9.2-.3.1-.5.3-.7.4-.2.1-.3.4-.3.8s.1.7.4.9c.3.2.6.4 1 .6.4.2.9.3 1.5.4.5.1 1.1.2 1.7.4.6.2 1.1.3 1.7.5.5.2 1 .4 1.5.8.4.3.8.7 1 1.2.3.5.4 1.1.4 1.8 0 .8-.2 1.5-.6 2.1-.4.6-.9 1.1-1.5 1.4-.6.4-1.3.6-2 .8-.8.2-1.5.3-2.2.3-.9 0-1.7-.1-2.5-.3-.8-.2-1.4-.5-2-.9-.5-.4-1-.9-1.3-1.5-.3-.6-.5-1.3-.5-2.2l3.4.1zm-5.3 4.5h-3.1v-2H76c-.4.7-1 1.3-1.7 1.7-.8.4-1.5.7-2.3.7-1.9 0-3.2-.4-4.1-1.4-.8-.9-1.3-2.3-1.3-4.2v-9h3.1v8.7c0 1.3.2 2.1.7 2.6.5.5 1.2.8 2 .8.7 0 1.2-.1 1.6-.3.4-.2.8-.5 1.1-.8.3-.3.5-.8.6-1.2.1-.4.2-1 .2-1.5v-8.2H79l.2 14.1zM56.5 19.1h2.9v2.7h.1c.1-.4.3-.8.5-1.1.3-.4.6-.7 1-1 .4-.3.8-.5 1.3-.7.4-.2.9-.3 1.4-.3h.8c.1 0 .3.1.4.1v3c-.2-.1-.4-.1-.7-.1-.2 0-.4-.1-.7-.1-.5 0-1 .1-1.5.3-.5.2-.9.5-1.2.9-.3.4-.6.9-.8 1.5-.2.6-.3 1.3-.3 2.1v6.7h-3.1l-.1-14zm-15.2-5.4h15.9v3h-6.3v16.7h-3.4V16.7h-6.2v-3zM18.8 27.3l7.2-5.2 1-.7 10.6-7.7H23.2L18.8 0l-4.4 13.7H0l11.6 8.4-4.4 13.7 11.6-8.5 11.6 8.5L27 25.2z"/>
    </g>
</svg>
