<svg width="88" height="134" viewBox="0 0 88 134" xmlns="http://www.w3.org/2000/svg" xmlns:xlink="http://www.w3.org/1999/xlink">
    <defs>
        <path id="hjomtj04wa" d="M0 0h8.617v11.395H0z"/>
        <path id="eiukxrji6c" d="M0 0h7.82v11.027H0z"/>
        <path id="ab1fgaqile" d="M0 133.241h87.305V0H0z"/>
    </defs>
    <g fill="none" fill-rule="evenodd">
        <path d="M32.385 68.928c2.35-3.343 4.639-6.73 7.335-9.817 4.318-4.945 9.162-9.25 14.995-12.345 4.057-2.153 8.328-2.9 12.855-1.821 2.422.577 4.442 1.875 6.305 3.458 1.752 1.488 3.296 3.173 4.679 5.008.097.128.173.272.31.493-.68.039-1.271.059-1.86.108-5.006.417-9.69 1.97-14.196 4.105-7.558 3.58-14.171 8.505-20.146 14.313-6.026 5.857-11.212 12.376-15.166 19.81-1.31 2.463-2.35 5.069-3.507 7.61-.146.322-.13.329-.38.266.02-.235.07-.471.057-.703-.046-.748-.146-1.494-.17-2.243-.1-3.322.326-6.59 1.082-9.818 1.452-6.2 4.04-11.924 7.292-17.37.2-.334.345-.702.515-1.054" fill="#FFF"/>
        <path d="M21.754 99.445c-.045-.748-.146-1.494-.17-2.243-.1-3.322.326-6.59 1.082-9.818 1.452-6.2 4.04-11.924 7.293-17.37.2-.334.344-.702.514-1.054-.078.039-.175.06-.231.12-2.112 2.26-23.858.702-25.28-1.121-.12-.155-.25-.302-.375-.453-.026.478.033.918.1 1.357.867 5.585 2.52 10.913 5.176 15.917 3.075 5.793 7.233 10.75 11.835 15.367.02-.234.07-.47.056-.702M39.94 133.038v-8.961h3.103v-2.072h-1.826c-2.025 0-4.05-.005-6.074.01-.17 0-.477.123-.483.206-.041.606-.022 1.216-.022 1.889h3.166v8.928h2.137zM45.594 121.992c-.535-.01-.653.169-.65.669.02 3.262.01 6.523.01 9.784v.634c.56 0 1.063-.03 1.56.009.48.036.596-.151.593-.608-.018-2.998-.01-5.997-.01-8.996 0-1.488 0-1.463-1.503-1.492M22.188 124.01v-1.964H14.71v10.99h7.856c0-.54-.015-1.043.006-1.543.014-.348-.127-.458-.46-.454-1.052.013-2.101.004-3.151.004h-2.093v-2.68h3.096v-2.027h-3.1v-2.326h5.323z" fill="#FFF"/>
        <g transform="translate(4.198 121.846)">
            <mask id="auwhxh4yyb" fill="#fff">
                <use xlink:href="#hjomtj04wa"/>
            </mask>
            <path d="M5.331 2.196c.426.173.752.585 1.135.873.128.096.331.236.436.195.57-.222 1.121-.494 1.706-.762C7.93 1.028 6.811.232 5.293.046c-1.705-.21-3.156.295-4.18 1.75-1.445 2.056-1.49 5.658-.096 7.752.992 1.489 2.448 1.979 4.151 1.819 1.678-.158 2.74-1.158 3.45-2.71-.519-.197-.988-.34-1.422-.553-.4-.196-.607-.097-.867.254C5.31 9.737 3.646 9.673 2.847 8.18c-.879-1.644-.859-3.363-.006-5.021.49-.953 1.53-1.352 2.49-.963" fill="#FFF" mask="url(#auwhxh4yyb)"/>
        </g>
        <path d="M29.718 126.922c-.99.014-1.98.003-3.059.003 0-.91-.013-1.732.015-2.552.004-.116.204-.32.316-.323.955-.02 1.913-.046 2.865.013.881.054 1.324.633 1.28 1.52-.044.846-.536 1.326-1.417 1.34m3.553-2.408c-.304-1.48-1.353-2.314-3.129-2.478a7.582 7.582 0 0 0-.674-.03c-1.443-.003-2.887.017-4.33-.013-.488-.01-.638.12-.635.624.023 3.28.012 6.561.013 9.841 0 .182.017.364.027.566h2.136v-4.069c.585 0 1.11.028 1.628-.009.414-.029.637.107.817.49a91.828 91.828 0 0 0 1.612 3.214c.085.165.258.392.402.401.702.042 1.408.02 2.226.02l-2.113-4.359c.096-.062.141-.095.19-.12 1.537-.839 2.194-2.302 1.83-4.078M52.254 124.028c1.032.016 2.064.006 3.096.006h1.69v-2c-.218-.01-.402-.027-.585-.027-2.045-.002-4.09.018-6.135-.015-.54-.008-.65.176-.647.673.02 3.264.01 6.529.01 9.793v.62c.44 0 .811.004 1.182 0 1.058-.012.926.123.932-.926.007-1.234.001-2.468.001-3.77h3.29v-2.033H51.8c0-.678.014-1.275-.005-1.871-.012-.346.122-.455.46-.45M75.548 131.023v-6.98c1.454.054 2.99-.381 4.016 1.114.872 1.27.89 3.422.034 4.695-1.019 1.515-2.563 1.166-4.05 1.17m6.61-1.475a6.715 6.715 0 0 0 .061-3.828c-.54-1.971-1.802-3.287-3.839-3.56-1.62-.218-3.28-.15-4.983-.21v11.077c1.498 0 2.977.069 4.447-.017 2.12-.124 3.686-1.433 4.313-3.462M60.655 122.01c-.593-.007-1.186-.002-1.785-.002v11.04h2.087v-5.105c0-1.799.002-3.597-.004-5.396-.001-.22.098-.532-.298-.537M70.544 121.995a292.05 292.05 0 0 1-6.417 0c-.476-.006-.598.144-.596.605.018 3.302.01 6.605.011 9.907 0 .166.017.332.027.522h7.86c0-.517-.025-.985.008-1.45.03-.427-.13-.549-.546-.544-1.52.02-3.04.009-4.56.006-.199 0-.399-.018-.612-.029v-2.634h3.103v-2.034h-3.097v-2.313h5.372c0-.528-.025-.994.007-1.455.031-.433-.102-.586-.56-.581M65.1 3.803c-.05.71-.437 1.22-1.123 1.257-1.094.058-2.194.015-3.323.015V2.29c1.19 0 2.38-.061 3.56.025.623.045.94.719.887 1.488m2.146-1.097c-.29-1.465-1.281-2.366-3-2.467-1.815-.107-3.638-.05-5.458-.061-.088 0-.176.036-.283.059v10.969h2.125v-4.08c.633 0 1.21.02 1.784-.006.336-.016.503.12.643.409a158.253 158.253 0 0 0 1.642 3.268c.087.169.248.415.386.423.719.043 1.44.02 2.255.02l-2.12-4.366c.11-.063.189-.11.268-.154 1.47-.808 2.106-2.26 1.758-4.014M49.817 11.259c2.27-.021 4.538-.01 6.807-.012.16 0 .321-.028.481-.043V9.202h-5.668v-2.66h3.104V4.51h-3.137c0-.633.026-1.21-.008-1.784-.026-.44.154-.535.556-.53 1.388.02 2.775.009 4.163.008h.662V.225c-.109-.02-.18-.046-.25-.046-2.289-.004-4.577.003-6.864-.012-.452-.003-.403.274-.403.558.001 3.319.008 6.638-.008 9.957-.002.436.113.58.565.577M63.358 20.504l1.31-3.46.18-.01 1.313 3.47h-2.803zm.92-6.788c-.418-.004-.62.114-.774.523-1.254 3.335-2.536 6.659-3.807 9.987-.062.163-.104.333-.175.564.618 0 1.143-.03 1.664.008.441.03.693-.09.812-.548.123-.47.303-.93.518-1.365.084-.172.325-.372.5-.377a61.493 61.493 0 0 1 3.49 0c.174.005.42.205.5.377.236.509.386 1.057.614 1.57.065.146.278.309.431.319.616.036 1.235.014 1.966.014-.102-.292-.163-.484-.235-.672a9761.891 9761.891 0 0 0-3.434-8.985c-.543-1.416-.545-1.401-2.07-1.415zM45.75 8.1c-.062.635-.478 1.08-1.2 1.114-1.065.048-2.132.012-3.256.012-.019-.171-.04-.28-.042-.389-.003-.729 0-1.457 0-2.353 1.241.07 2.45.069 3.636.23.65.087.93.698.862 1.386zm-4.464-5.875c1.078 0 2.123-.042 3.163.016.6.034.9.447.93 1.018.027.536-.266 1.01-.82 1.13-.507.108-1.039.114-1.56.133-.557.02-1.115.005-1.713.005V2.224zM44.928.28C43.046.131 41.146.216 39.254.201c-.03 0-.062.038-.119.076V11.16c2.067 0 4.075.098 6.068-.034 1.331-.088 2.294-.925 2.62-2.282.353-1.47-.057-2.668-1.35-3.359.331-.51.766-.96.943-1.495.6-1.817-.515-3.553-2.488-3.71z" fill="#FFF"/>
        <g transform="translate(0 13.715)">
            <mask id="clyxb25z5d" fill="#fff">
                <use xlink:href="#eiukxrji6c"/>
            </mask>
            <path d="M6.1 2.041c1.445 0 1.426 0 1.44-1.443.004-.474-.147-.602-.608-.598C4.812.022 2.69.01.57.011c-.181 0-.362.02-.57.03v10.986h7.82V9.031H2.166V6.347h3.1V4.342c-.924 0-1.803.013-2.681-.01-.156-.006-.435-.157-.44-.253-.04-.664-.021-1.33-.021-2.038H6.1z" fill="#FFF" mask="url(#clyxb25z5d)"/>
        </g>
        <mask id="uepliz6wof" fill="#fff">
            <use xlink:href="#ab1fgaqile"/>
        </mask>
        <path fill="#FFF" mask="url(#uepliz6wof)" d="M56.664 24.752h2.067V13.778h-2.067zM13.591 22.894c-1.066.162-1.914-.2-2.55-1.065-.142-.193-.268-.396-.418-.617l-1.894.722c.06.18.088.288.13.39.969 2.303 3.738 3.316 6.177 2.255 1.187-.516 1.868-1.42 1.963-2.72.095-1.296-.415-2.322-1.546-2.965-.614-.35-1.296-.58-1.952-.853-.553-.23-1.146-.388-1.654-.69-.256-.15-.48-.535-.515-.838-.05-.43.298-.693.704-.835a2.169 2.169 0 0 1 2.418.716c.102.129.335.274.463.242.54-.136 1.065-.338 1.739-.563-.316-.501-.534-.98-.868-1.355-1.114-1.247-3.306-1.562-4.95-.747-1.018.505-1.621 1.309-1.688 2.467-.07 1.208.442 2.117 1.493 2.687.54.293 1.13.497 1.702.727.555.224 1.134.395 1.673.652.664.316.896.757.8 1.333-.093.572-.534.952-1.226 1.057M23.328 22.81c-1.037.36-2.134.008-2.848-.925-.157-.206-.291-.43-.454-.671l-1.898.72c.049.15.07.24.104.324 1.059 2.64 4.707 3.625 6.966 1.88 1.65-1.273 1.65-3.858-.064-5.038-.668-.46-1.473-.724-2.224-1.055-.564-.25-1.177-.406-1.701-.718-.245-.147-.477-.581-.445-.853.032-.278.344-.627.622-.755.876-.404 1.878-.07 2.5.716.09.115.308.238.425.207.538-.145 1.063-.344 1.779-.587-.396-.568-.651-1.11-1.058-1.49-1.253-1.168-2.765-1.247-4.317-.777-1.282.387-2.052 1.27-2.177 2.644-.108 1.194.506 2.215 1.74 2.828.486.24 1.008.405 1.512.607.607.244 1.229.457 1.815.746.448.222.692.625.627 1.158-.067.548-.402.865-.904 1.039M70.886 13.78v10.967h7.376v-2.06h-5.284v-8.908zM27.653 16.917c0 2.438.011 4.876-.009 7.314-.004.448.134.602.576.565.391-.033.787-.007 1.181-.007 1.875 0 3.75.007 5.625-.012.17-.002.476-.159.485-.264.048-.567.023-1.14.023-1.777H29.85v-2.678h3.115v-2.01H29.84V15.75h5.371c0-.533-.026-1 .008-1.462.033-.447-.13-.575-.572-.57-2.137.02-4.275.007-6.413.01-.178 0-.356.028-.58.048v3.142M25.34 2.631c.23.216.422.471.664.745l1.934-.882c-.269-.4-.464-.742-.706-1.044-1.549-1.926-5.568-2.209-7.136.853-1.05 2.051-1.092 4.19-.277 6.32.874 2.282 3.196 3.34 5.516 2.57 1.255-.415 2.021-1.318 2.562-2.522-.502-.194-.938-.32-1.333-.526-.452-.233-.698-.128-1 .28-.874 1.177-2.27 1.23-3.166.174-1.152-1.358-1.179-4.39-.053-5.765a2.043 2.043 0 0 1 2.995-.203M84.207 22.818c-.968.322-2.006.033-2.697-.779-.215-.253-.393-.537-.598-.822l-1.892.719c.082.215.137.391.214.556 1.033 2.21 3.818 3.144 6.165 2.058 1.128-.522 1.792-1.395 1.892-2.651.104-1.297-.376-2.341-1.511-2.981-.712-.401-1.505-.659-2.263-.977-.466-.196-.975-.323-1.387-.597-.25-.167-.517-.581-.478-.84.044-.296.365-.66.657-.791.87-.392 1.862-.059 2.455.697.095.121.306.271.418.241.556-.151 1.097-.358 1.797-.597-.385-.555-.656-1.099-1.064-1.506-1.104-1.102-3.207-1.339-4.743-.596-1.068.517-1.688 1.359-1.733 2.559-.045 1.179.477 2.082 1.516 2.621.66.343 1.38.572 2.074.854.485.197.986.366 1.449.607.462.241.737.645.654 1.2-.08.539-.42.857-.925 1.025M46.916 13.977c-.026.592-.014 1.185-.014 1.84h3.14v2.763c0 1.895-.008 3.79.01 5.686.002.173.152.486.252.494.608.046 1.222.023 1.902.023v-9.01h3.108v-2.044c-2.744 0-5.425-.002-8.105.01-.103 0-.289.15-.293.238M36.395.165c-.366-.018-.579.11-.763.427-.66 1.134-1.349 2.251-2.028 3.373-.128.213-.26.422-.432.7-.859-1.42-1.659-2.753-2.47-4.078-.092-.15-.235-.378-.364-.384-.736-.038-1.474-.018-2.3-.018.163.28.263.458.368.632 1.146 1.891 2.302 3.777 3.43 5.68.162.271.258.621.266.938.03 1.235.012 2.472.012 3.757h2.13c0-1.275-.022-2.493.013-3.71.01-.352.116-.74.295-1.044 1.115-1.887 2.265-3.755 3.401-5.63.11-.182.205-.372.351-.635-.714 0-1.313.021-1.909-.008M38.698 13.747c-.575-.043-1.155-.017-1.764-.017v11.013h2.063v-7.001c1.423 2.09 2.795 4.014 4.059 6.006.514.81 1.07 1.179 2.033 1.064.464-.055.642-.116.638-.63-.023-3.283-.011-6.566-.013-9.85 0-.182-.015-.364-.024-.561h-2.117v6.742c-.14-.01-.165-.06-.196-.105-1.408-2.104-2.813-4.21-4.231-6.307-.104-.154-.29-.342-.448-.354"/>
    </g>
</svg>
