<svg width="151" height="95" viewBox="0 0 151 95" xmlns="http://www.w3.org/2000/svg" xmlns:xlink="http://www.w3.org/1999/xlink">
    <defs>
        <path id="a21q3whp3a" d="M0 0h65.6v84.099H0z"/>
        <path id="idlhg1g7hc" d="M0 0h4.76v7.363H0z"/>
    </defs>
    <g fill="none" fill-rule="evenodd">
        <path d="M80.966 41.66c-.14 10.944-3.919 20.433-11.561 28.3-5.654 5.85-12.54 9.572-20.49 11.307a38.547 38.547 0 0 1-6.438.812 45.676 45.676 0 0 1-5.542-.084c-4.955-.42-9.657-1.679-14.136-3.89C13.646 73.541 7.04 66.571 3.065 57.137 1.721 53.92.853 50.56.378 47.09A40.603 40.603 0 0 1 .042 39.7c.504-9.07 3.639-17.159 9.517-24.129 2.799-3.33 6.046-6.103 9.769-8.398.056-.028.084-.056.14-.084.28-.14.28-.14.42.112.14.252.308.504.448.756.084.14.084.252-.084.336-.448.28-.924.56-1.4.868-7.838 5.318-13.156 12.54-15.871 21.637-.672 2.268-1.092 4.591-1.316 6.97-.224 2.211-.28 4.395-.112 6.634.672 8.874 3.919 16.683 9.881 23.345 4.563 5.095 10.021 8.734 16.516 10.945a37.752 37.752 0 0 0 7.641 1.736c1.596.224 3.219.336 4.843.308 9.461-.056 17.887-3.052 25.192-9.126 4.983-4.17 8.678-9.209 11.113-15.199a38.369 38.369 0 0 0 2.464-9.182c.307-2.043.419-4.086.391-6.158-.168-8.313-2.687-15.87-7.641-22.56-2.995-4.032-6.634-7.39-10.889-10.022-.056-.028-.084-.056-.14-.084-.14-.056-.14-.14-.056-.308.168-.308.364-.56.504-.868.084-.112.14-.14.28-.056.28.168.531.336.811.504 7.922 5.234 13.464 12.288 16.544 21.302a40.52 40.52 0 0 1 1.819 8.313c.056 1.4.14 2.883.14 4.367" fill="#FFF"/>
        <path d="M2.533 43.703c-.112-1.624-.056-3.275.028-4.9.14-2.126.476-4.281 1.036-6.353 1.455-5.962 4.226-11.196 8.229-15.815a38.605 38.605 0 0 1 8.706-7.39c.448-.28.392-.28.644.168.335.532.643 1.092.951 1.624.084.279-.084.363-.28.475a39.05 39.05 0 0 0-3.555 2.52c-3.443 2.883-6.326 6.214-8.537 10.133-1.904 3.33-3.191 6.886-3.919 10.693a32.887 32.887 0 0 0-.532 4.422c-.084 1.4-.056 2.77-.028 4.199 0 .112-.028.252-.112.308-.896-.028-1.763 0-2.631-.084M58.992 11.092c.336-.56.672-1.148 1.008-1.708.168-.307.168-.307.476-.11a35.278 35.278 0 0 1 5.094 3.777c5.822 5.151 9.741 11.477 11.73 19.035a40.312 40.312 0 0 1 1.062 6.046c.14 1.764.168 3.555.112 5.32 0 .166-.056.278-.28.278-.67-.028-1.343 0-2.015 0-.392 0-.504-.112-.476-.503.084-.756.056-1.484.056-2.24-.056-3.275-.532-6.55-1.483-9.713-.672-2.155-1.512-4.283-2.548-6.298-1.259-2.35-2.743-4.59-4.506-6.606a47.304 47.304 0 0 0-2.324-2.435c-1.65-1.568-3.47-3.024-5.402-4.255-.252-.056-.644-.168-.504-.588" fill="#FFF"/>
        <path d="M58.992 11.092c.028.168.224.28.336.336.924.56 1.847 1.204 2.715 1.875 1.54 1.176 2.995 2.464 4.311 3.891a35.947 35.947 0 0 1 5.094 6.886c1.876 3.303 3.163 6.83 3.891 10.61.252 1.26.392 2.518.504 3.834.112 1.4.112 2.743.112 4.115 0 .252-.056.476-.056.756 0 .251.028.307.308.307h1.987c.14 0 .28-.056.336-.223.028.167-.028.28-.224.28-.81 0-1.595.027-2.407-.029-.252 0-.476 0-.756-.028-.28 0-.308-.028-.28-.307.056-1.204.084-2.408.028-3.61-.224-3.948-1.035-7.783-2.519-11.422-1.428-3.443-3.33-6.578-5.766-9.377-2.296-2.632-4.87-4.87-7.838-6.746-.028-.028-.084-.056-.112-.084-.168-.112-.224-.14-.084-.392.084-.14.252-.42.42-.672M5.108 43.73c-.056-.251-.056-.475-.056-.755 0-.868-.028-1.763 0-2.66.028-1.455.168-2.882.392-4.338.336-2.1.84-4.115 1.54-6.158a35.02 35.02 0 0 1 4.562-8.79 35.683 35.683 0 0 1 5.011-5.654c1.623-1.511 3.387-2.827 5.262-4.003.14-.084.308-.14.364-.335.14.279.336.503.476.783.084.112.056.224-.056.308a2.462 2.462 0 0 1-.28.168c-2.687 1.68-5.067 3.695-7.194 6.018a33.7 33.7 0 0 0-5.066 7.138 33.037 33.037 0 0 0-3.247 9.014c-.308 1.51-.504 3.023-.644 4.562-.056.84-.056 1.68-.084 2.492-.028.559.028 1.147.028 1.679v.28c0 .168-.084.28-.252.28-.224-.028-.476-.028-.756-.028M27.95 9.357c-.28 0-.505 0-.729-.056-.111-.028-.224-.084-.168-.252.028-.224.028-.42.056-.644 0-.14.084-.168.252-.14.56.112 1.148.056 1.709-.112.224-.056.392-.14.532-.308.139-.14.25-.307.166-.503-.056-.224-.25-.308-.419-.336-.364-.056-.727 0-1.091.028-.28.028-.56.028-.84.028-1.148-.028-1.82-1.232-1.203-2.24.139-.28.39-.476.643-.671a3.976 3.976 0 0 1 2.436-.616c.308.028.335.028.308.336-.029.224.055.475-.085.671-.14.14-.392 0-.616 0-.42.028-.811.084-1.203.28a.842.842 0 0 0-.393.308c-.252.336-.055.728.337.756.308.028.616 0 .867-.028.364-.056.729-.056 1.093-.056 1.258.028 1.622 1.288 1.23 2.043a1.898 1.898 0 0 1-.784.84 3.585 3.585 0 0 1-2.098.672M119.79 93.444c.14.084.28.056.393.056h2.77c.337 0 .337 0 .337.336 0 .616.056.532-.532.532h-3.835c-.42 0-.476-.056-.364-.476.112-.392.336-.756.616-1.092.336-.392.728-.756 1.12-1.09a24.67 24.67 0 0 0 1.287-1.149c.252-.252.448-.504.616-.812.224-.476.252-.952-.084-1.4-.392-.475-.895-.559-1.483-.447-.532.112-.868.475-1.008 1.063-.056.364-.056.364-.42.336-.56-.056-.616-.084-.42-.644.224-.727.7-1.23 1.456-1.427.476-.112.952-.14 1.455-.028 1.26.28 1.932 1.511 1.456 2.715-.14.392-.392.7-.672 1.008-.392.42-.84.812-1.26 1.175-.307.28-.615.504-.895.784-.252.14-.392.308-.532.56M70.497 60.386c-.868 1.428-1.875 2.743-2.939 4.031-.896 1.091-1.932 2.071-2.91 3.079a23.37 23.37 0 0 1-1.233 1.12c-.168.14-.224.14-.336-.028-.084-.112-.224-.252-.308-.364-.224-.252-.168-.308.028-.476.224-.224.448-.392.672-.56 1.904-1.68 3.583-3.583 5.067-5.654.252-.364.531-.7.727-1.092.364-.056.784-.056 1.232-.056M11.798 60.386c0 .14.084.28.168.392a33.712 33.712 0 0 0 2.547 3.331c.56.672 1.176 1.316 1.82 1.931.615.56 1.203 1.148 1.847 1.652.28.252.28.252.028.532-.084.084-.14.224-.252.308-.168.224-.168.224-.392.028-.308-.252-.56-.476-.867-.728a35.44 35.44 0 0 1-5.487-6.27c-.28-.392-.476-.812-.812-1.176h1.4M58.265 6.082c0 .028-.028.084-.056.14-.7 1.484-1.4 2.939-2.1 4.395-.111.224-.111.224-.335.112-.224-.084-.448-.224-.672-.336-.224-.112-.224-.112-.112-.364.336-.728.7-1.428 1.036-2.128.224-.42.42-.867.643-1.287.112-.28.112-.28-.14-.392-.167-.084-.363-.168-.531-.28-.084-.056-.14-.112-.084-.224.084-.224.168-.392.308-.616.056-.112.112-.112.252-.056.615.28 1.203.56 1.763.84-.028.056.028.084.028.196M26.55 9.973c0 .084-.028.112-.084.14-.28.112-.532.28-.84.392-.084.056-.168.028-.252-.084-.028-.056-.056-.14-.112-.224-.643-1.4-1.287-2.771-1.931-4.115l-.084-.168c-.056-.112-.028-.168.084-.252.28-.112.504-.252.784-.364.112-.056.224-.028.28.084.028.056.056.112.056.14.67 1.428 1.287 2.799 1.959 4.227.056.084.112.168.14.224M52.33 13.136c0-.616.448-1.064 1.064-1.064.616 0 1.091.476 1.091 1.092 0 .56-.503 1.064-1.09 1.064-.617-.028-1.065-.476-1.065-1.092" fill="#FFF"/>
        <path d="M2.533 43.703h2.631c-.084.056-.224.056-.308.056H2.841c-.14.028-.224.028-.308-.056M55.605 54.564c-.14 0-.224-.112-.308-.224-.28-.392-.532-.784-.812-1.176-.084-.14-.224-.252-.392-.224h-.755c-.14 0-.252.056-.252.252v1.036c0 .336 0 .336-.336.336h-.728c-.28 0-.308-.028-.308-.308V49.022c0-.168.084-.252.252-.252.924 0 1.848-.028 2.771.028.28.028.56.084.812.224a2.032 2.032 0 0 1 1.008 2.799c-.14.336-.42.56-.728.756-.252.14-.252.14-.084.39.28.42.56.813.84 1.233.112.112.196.196.224.364h-1.204zm-4.283 0h-1.175c-.112 0-.168-.084-.224-.168-.112-.28-.224-.504-.336-.784-.056-.168-.14-.28-.364-.252h-2.21c-.14 0-.28.056-.337.224-.084.28-.252.532-.336.812-.056.14-.14.224-.308.224h-.952c-.14 0-.224-.056-.112-.224l.084-.168c.756-1.68 1.512-3.331 2.24-5.038.111-.252.251-.392.503-.364.252.028.476 0 .756 0 .14 0 .28.056.336.224.056.168.14.364.252.53.7 1.54 1.4 3.08 2.071 4.62.084.084.196.196.112.364zm-6.578 1.064c-.784.504-1.595.448-2.407.028-.364-.168-.644-.448-.896-.728-.14-.14-.28-.224-.476-.28-1.259-.28-2.099-1.036-2.379-2.323-.364-1.652.728-3.22 2.407-3.527.868-.14 1.68-.056 2.464.392 1.035.643 1.483 1.567 1.4 2.743-.057 1.119-.645 1.93-1.624 2.435-.168.028-.28.056-.392.168.252.336.56.42.951.364.14-.028.28-.084.392-.14.112-.056.168-.224.336-.168.14.028.224.168.308.308l.028.028c.308.392.336.42-.112.7zm-6.606-3.723c-.112 1.427-1.092 2.519-2.463 2.743-.252.028-.476.056-.672.056-.42 0-.784-.056-1.12-.14-1.343-.42-2.155-1.624-2.099-3.023a2.98 2.98 0 0 1 2.463-2.771 3.887 3.887 0 0 1 1.876.112c1.287.448 2.127 1.65 2.015 3.023zm-7.25 2.239c-.476.364-1.035.448-1.595.504-.084.056-.168.056-.224.056-.728 0-1.428-.14-2.044-.476-.336-.168-.336-.168-.168-.504.084-.224.112-.504.336-.616.168-.084.392.14.616.252.532.224 1.12.336 1.68.252.168-.028.364-.056.476-.168.307-.224.307-.56 0-.811-.14-.112-.364-.168-.532-.252-.364-.084-.728-.168-1.064-.28-.168-.056-.336-.084-.504-.14-.532-.224-.924-.56-1.008-1.176-.084-.644.112-1.176.644-1.567.392-.308.84-.42 1.316-.476.784-.084 1.54.028 2.24.364.251.112.251.112.14.363a2.29 2.29 0 0 1-.253.532c-.084.224-.084.224-.308.112a2.88 2.88 0 0 0-1.735-.308c-.168.028-.336.056-.448.14-.364.252-.336.7.056.896.224.084.42.14.644.224.364.084.7.168 1.063.28.112.028.252.084.364.112.504.224.868.532.952 1.12.084.643-.112 1.175-.644 1.567zm-4.87-5.178v5.29c0 .252-.028.28-.28.28h-.784c-.308 0-.308 0-.308-.308.056-.84.056-1.68.056-2.547v-2.547c0-.336 0-.336.336-.336h.812c.112 0 .224.056.168.168zm52.092-4.311H40.49c-12.232 0-24.492 0-36.865.056H2.84c-.39 0-.39 0-.363.392.084.84.223 1.707.335 2.547.672 4.003 1.904 7.838 3.78 11.449.167.28.307.364.615.364h66.425c.308 0 .476-.084.616-.364a38.22 38.22 0 0 0 2.687-6.662 37.89 37.89 0 0 0 1.427-7.474c.028-.28.028-.308-.252-.308zM58.712 65.425c-.168.812-.756 1.26-1.512 1.484a2.529 2.529 0 0 1-.643.084h-1.651c-.28 0-.28 0-.28-.28-.029-.56-.029-1.176-.029-1.792v-1.735c0-.336 0-.336.309-.336.672 0 1.316-.028 1.988.028 1.315.14 2.099 1.259 1.819 2.547zm-1.987 7.138a2.099 2.099 0 0 1-.56.28c-.084.028-.111-.084-.14-.168-.111-.308-.28-.616-.392-.896-.056-.112-.084-.224-.14-.308-.14-.224-.336-.28-.532-.224-.307.112-.475.308-.475.56 0 .14.056.308.111.42.14.308.28.644.42.924.056.112.056.224-.084.28-.644.28-.504.28-.727-.252-.113-.28-.253-.56-.393-.84-.14-.336-.363-.42-.67-.336-.309.112-.42.392-.309.728.112.364.308.7.448 1.064.113.307.113.307-.14.419-.476.224-.392.252-.616-.224-.28-.56-.504-1.147-.756-1.707-.112-.28-.112-.308.168-.42.14-.056.308-.252.476-.028.056.056.084-.028.112-.084a1.09 1.09 0 0 1 .56-.448.997.997 0 0 1 .7-.028c.14.056.252.028.307-.112.14-.308.392-.476.728-.616.477-.167.897-.028 1.205.42.167.28.28.56.42.868.084.168.168.392.28.56.028.056.084.14 0 .168zm-6.41 2.575c-.755 0-1.316-.616-1.343-1.343 0-.756.7-1.4 1.538-1.4.729-.056 1.345.56 1.345 1.344 0 .755-.7 1.399-1.54 1.399zm-1.427.112a1.69 1.69 0 0 1-1.232.504c-.728 0-1.231-.42-1.343-1.092-.113-.672.223-1.231.866-1.483.42-.14.813-.224 1.232 0 .084.028.14.084.252.14.085.084.113.168 0 .28a.337.337 0 0 0-.14.14c-.112.14-.252.14-.42.028a.679.679 0 0 0-.84.14c-.195.223-.224.643 0 .923.169.252.477.336.785.252.111-.056.252-.112.307-.252.085-.168.225-.168.393-.112.392.112.42.224.14.532zm-3.051-8.201h-2.38c-.364 0-.392 0-.392-.364.085-.616.085-1.176.085-1.792v-1.68c0-.335 0-.363.334-.363h2.465c.308 0 .336.028.336.336v.14c0 .308-.028.308-.336.308h-1.54c-.309 0-.309 0-.309.307 0 .7-.056.616.56.616h1.065c.28 0 .28 0 .28.252.027.476.027.476-.477.476h-1.175c-.253 0-.28.028-.28.28 0 .812-.084.672.672.7h1.26c.307 0 .307 0 .307.308.029.476.029.476-.475.476zm-.085 9.069a.456.456 0 0 1-.448-.504.467.467 0 0 1 .505-.42c.224-.028.42.224.42.476 0 .28-.224.448-.477.448zm-1.064 0a1.64 1.64 0 0 1-.476.28c-.252-.056-.476-.028-.672-.028a3.05 3.05 0 0 1-.727-.084c-.14-.028-.224-.112-.14-.28.029-.056.029-.112.056-.168.029-.14.113-.168.28-.112.28.084.56.14.867.056.085-.028.14-.028.253-.084.111-.084.084-.224-.029-.28-.111-.056-.252-.056-.336-.056-.224 0-.42-.028-.643-.056-.28-.056-.476-.224-.532-.476-.056-.308 0-.56.253-.784.084-.084.224-.14.336-.223.419-.14.867-.14 1.315-.056.224.056.252.084.167.307-.083.336-.083.336-.447.28-.252-.028-.477-.056-.7.028-.084.028-.224.084-.224.224 0 .112.111.14.252.168.14.028.28.028.42.056.14.028.308.028.447.056.28.056.448.224.505.476a.8.8 0 0 1-.224.756zm-2.77-12.484c-.28 0-.28.027-.28.307V66.713c0 .28-.029.28-.252.28h-.533c-.111 0-.168-.056-.168-.168V63.997c0-.364 0-.364-.364-.364h-.67c-.253 0-.28-.027-.28-.28-.029-.531-.029-.531.503-.531.392.028.867.028 1.287.028h1.484c.28 0 .308.028.308.308.028.476.028.476-.476.476h-.56zm.224 11.504v1.036c0 .28 0 .308-.28.308-.169 0-.393.084-.477-.14-.027-.056-.111.028-.167.056-.309.168-.645.224-.953.112-.419-.112-.67-.392-.727-.812-.055-.504-.027-1.064-.055-1.596 0-.14.056-.223.224-.223h.056c.474-.028.474-.028.474.447 0 .336 0 .7.029 1.036.028.392.28.532.644.476.28-.028.448-.252.476-.56.027-.336 0-.7 0-1.036 0-.391 0-.391.392-.391h.168c.14 0 .224.056.224.223-.056.364-.056.7-.029 1.064zm-3.444-8.23c-.224.113-.447.169-.7.252-.671.084-1.26 0-1.874-.307-.28-.112-.28-.14-.14-.392.055-.112.111-.252.14-.364l.167-.168c.336.14.644.308 1.008.364.28.028.532.056.812-.028.224-.056.336-.224.336-.364 0-.224-.14-.308-.309-.364-.224-.084-.42-.112-.643-.168-.252-.056-.505-.112-.756-.224-.392-.14-.671-.42-.7-.84-.056-.448.084-.84.477-1.12.279-.223.614-.307.95-.335a2.943 2.943 0 0 1 1.54.252c.14.056.224.14.112.336-.084.14-.084.335-.224.447-.14.112-.307-.084-.447-.112-.337-.084-.672-.14-1.037-.084-.083.028-.167.028-.28.084-.28.168-.28.504.028.672.169.084.392.112.56.168.28.056.532.14.813.252.42.14.755.42.784.896.028.504-.168.896-.616 1.148zm.056 9.462c0 .028 0 .056-.027.056-.168.14-.392.028-.56.028-.113 0-.169-.084-.169-.224l.085-.84c.028-.168.028-.364.028-.532 0-.28-.112-.42-.364-.448-.252-.056-.449.028-.617.224a.7.7 0 0 0-.111.392c-.029.364-.084.7-.112 1.064-.028.168-.084.252-.252.168h-.056c-.42-.056-.42-.056-.363-.504.028-.364.111-.728.084-1.092 0-.42-.337-.644-.728-.448a.617.617 0 0 0-.337.448c-.056.308-.084.644-.111.924-.056.504-.056.504-.56.448-.14-.028-.253-.084-.225-.252.029-.308.056-.56.084-.868.029-.42.085-.812.14-1.231.029-.28.056-.28.309-.252.14.028.363-.028.447.168.029.084.084.056.14.028.505-.168 1.008-.14 1.4.28.111.11.168.027.28 0 .308-.168.644-.224.952-.112.476.112.756.419.784.923.027.532-.085 1.12-.14 1.652zm-4.674-2.575c-.14.559-.28 1.175-.42 1.735-.084.308-.084.308-.392.252-.169-.084-.364-.084-.364-.364a1.4 1.4 0 0 1-1.064 0c-.448-.168-.671-.56-.616-1.064.056-.503.253-1.035.364-1.567 0-.028.028-.084.028-.084.224-.112.392.028.617.056.111.028.111.112.084.252-.056.336-.14.644-.252.95a1.639 1.639 0 0 0-.056.365c-.029.308.084.448.307.532.252.084.505.028.672-.168.084-.112.111-.252.14-.392.084-.336.14-.643.252-.951.027-.168.111-.252.307-.168.56.14.505.084.393.616zm-3.975.307c.084-.028.168-.14.308-.084.14.084.28.252.363.392.056.084-.027.112-.084.168-.168.14-.448.224-.727.224-.84 0-1.54-.672-1.512-1.427 0-.672.42-1.176 1.093-1.288.614-.112 1.119.056 1.51.532.113.112.252.308.14.476-.056.112-.28.084-.42.112-.111.028-.168-.056-.252-.14-.224-.336-.476-.448-.784-.364-.306.084-.502.392-.502.756 0 .448.447.783.867.643zm-2.547-.112a3.636 3.636 0 0 1-.477-.223c-.055-.028-.084-.084-.055-.14.027-.084.055-.14.084-.252.364-.868.727-1.764 1.091-2.66.029-.084.056-.14.084-.251.029-.028.056-.084.084-.084.224.028.393.11.56.25.056.029.029.085 0 .14-.055.113-.083.28-.14.393-.336.84-.7 1.68-1.064 2.548.028.14.028.279-.168.279zm-1.232-.531c-.084.028-.56-.224-.56-.308 0-.168-.055-.14-.167-.14-.364.028-.672-.112-.925-.364-.28-.252-.335-.56-.223-.896.14-.336.42-.448.811-.42.308.028.532.168.785.308.084.028.223.168.306.056.084-.112.028-.28-.056-.392-.139-.224-.363-.28-.614-.336-.056-.028-.14-.028-.224-.028-.084 0-.224.028-.253-.084-.027-.14-.055-.308 0-.42.14-.14.253-.083.364-.111.448.028.867.167 1.203.475.337.28.448.644.337 1.064-.168.532-.448 1.008-.7 1.512-.029.028-.056.084-.084.084zm-2.1-7.586c-.671.028-.531-.028-.56.56 0 .644.084.56-.616.56-.363 0-.363 0-.363-.364v-3.471c0-.308.028-.336.335-.336.617 0 1.233-.028 1.849.028.252.028.448.084.672.224.95.476.95 1.93.168 2.435-.028.028-.084.056-.112.084-.113.056-.113.14-.029.28.224.308.42.616.645.896 0 .056.055.084.055.252h-.811c-.113 0-.168-.084-.253-.168-.168-.252-.363-.476-.503-.728-.113-.224-.28-.28-.476-.252zm2.492-2.715c0-.308.027-.308.308-.308h2.52c.306 0 .306.028.306.308.029.476.029.476-.474.476H27.95c-.28 0-.28.027-.28.307 0 .7-.057.616.56.616h1.091c.168 0 .28.056.252.252v.168c0 .308 0 .308-.335.336h-1.26c-.309 0-.309.028-.309.308 0 .784-.084.644.645.672h1.4c.167 0 .25.056.25.252 0 .643 0 .532-.474.532h-2.38c-.337 0-.337 0-.337-.336-.055-.644-.055-1.204-.055-1.82v-1.763zm3.358 1.427c.14-.896.813-1.567 1.709-1.735a2.967 2.967 0 0 1 1.314.056c.28.084.505.224.757.42.167.14.167.168.027.363l-.084.084c-.307.28-.307.28-.672.056a1.361 1.361 0 0 0-1.483-.028c-.447.28-.643.7-.615 1.204.027 1.036 1.036 1.484 1.903 1.148.112-.056.14-.14.14-.28v-.756c0-.168.055-.252.252-.252.727 0 .644-.028.644.56.055.14.055.224.055.336v.616c0 .14-.056.28-.224.336-.867.447-1.763.559-2.686.084-.785-.42-1.177-1.288-1.037-2.212zm4.535-1.427c0-.308 0-.308.309-.308.755 0 .643-.056.672.644v3.359c0 .084-.056.14-.14.14h-.029c-.727.084-.756.056-.756-.672-.056-.42-.056-.896-.056-1.4v-1.763zm12.205 0c0-.336 0-.336.307-.336.645 0 1.26-.056 1.905.028.56.084 1.064.364 1.258.923.169.504.112 1.288-.53 1.708-.224.112-.224.14-.056.364.252.336.474.672.698 1.036.028.084.028.112.028.14h-.839c-.112 0-.168-.084-.252-.168-.168-.252-.336-.476-.504-.728-.112-.168-.252-.252-.42-.252-.7 0-.616-.028-.616.56 0 .644.084.56-.616.56-.364 0-.364 0-.364-.364v-3.471zm4.058.084c0-.364 0-.364.392-.364h2.38c.392 0 .392 0 .392.392v.112c0 .25-.028.279-.28.279H52.19c-.363 0-.363 0-.363.364 0 .616-.056.532.504.532h1.091c.28 0 .28 0 .308.28v.028c0 .42 0 .42-.42.42h-1.232c-.168 0-.28.056-.252.252v.448c0 .168.084.252.252.252h1.847c.253.028.14.252.14.364 0 .14.085.364-.14.392h-2.659c-.363 0-.363 0-.363-.392-.029-.56-.029-1.12-.029-1.708v-1.651zm19.568-2.912a.842.842 0 0 0-.392.308c-1.569 2.464-3.5 4.675-5.627 6.69-.28.308-.616.56-.952.84-.167.14-.335.224-.503 0-.169-.196-.085-.364.083-.504.337-.336.728-.643 1.091-1.007 1.093-1.064 2.184-2.128 3.136-3.331.671-.812 1.316-1.624 1.875-2.492.084-.112.224-.28.056-.448H11.8c-.168.112-.085.28-.14.392.167.28.391.532.56.812 1.399 1.876 2.883 3.639 4.618 5.207.335.28.7.615 1.035.923.169.14.169.308.029.476-.14.196-.28.196-.56-.056a97.451 97.451 0 0 1-1.764-1.623 34.013 34.013 0 0 1-1.68-1.82 39.243 39.243 0 0 1-2.938-3.891c-.14-.196-.28-.392-.56-.476H8.915c-.476.028-1.009 0-1.513.028 5.319 9.77 17.58 19.735 34.206 19.23 15.508-.42 26.928-10.048 31.884-19.258h-3.051z" fill="#FFF"/>
        <g transform="translate(84.738)">
            <mask id="4g8eu1lkfb" fill="#fff">
                <use xlink:href="#a21q3whp3a"/>
            </mask>
            <path d="M64.36 26.264c0 .14-.112.14-.252.14H62.01c-.14 0-.224.056-.224.224.028.812-.112.672.672.7h1.595c.28 0 .28 0 .28.28v1.399c0 .252 0 .28-.28.28h-2.015c-.168 0-.28.028-.252.252v.42c-.028.224.084.252.252.252H63.8c.56 0 .504-.056.504.504v1.175c0 .168-.056.252-.252.252h-1.987c-.308 0-.308 0-.308.308 0 .756-.084.616.616.644h1.651c.252 0 .28 0 .28.28v1.428c0 .167-.084.251-.252.251h-1.987c-.308 0-.308 0-.308.308 0 .756-.084.616.616.616h1.651c.252 0 .252 0 .252.28v1.344c0 .308 0 .308-.336.308h-4.283c-.475 0-.419-.056-.419.447v.112c0 .336 0 .364.363.364H64.108c.112 0 .168.056.168.168v1.54c0 .168-.084.224-.252.224h-2.071c-.14 0-.224.056-.224.224-.028.671-.056.671.644.671h1.651c.168 0 .252.056.252.252v1.428c0 .252 0 .28-.28.28h-2.099c-.14 0-.168.056-.168.224v.448c0 .168.056.252.252.252h1.623c.224 0 .448-.084.616.056.112.14.028.392.028.559v.868c0 .42.028.392-.364.392h-1.847c-.308 0-.308 0-.308.308v.364c-.028.168.084.252.252.252h2.099c.112 0 .168.028.168.168v1.567c0 .14-.084.168-.224.168h-2.099c-.168 0-.252.056-.252.252.028.756-.084.644.644.644h1.651c.168 0 .252.056.252.252v1.428c0 .279 0 .279-.308.279H59.49c-.307 0-.307 0-.335.308 0 .56 0 .56.56.56h4.282c.112 0 .168.056.168.168v29.028c0 .476.056.42-.448.42-10.469-.168-20.714-.168-30.93-.168H2.19c-.532 0-.476.056-.476-.448v-28.86c0-.308 0-.308.308-.308H6.305c.14 0 .252-.028.252-.224V52.1c0-.112-.056-.168-.168-.168H1.966c-.14 0-.252-.055-.252-.223v-1.484c0-.168.084-.224.252-.224h1.96c.336 0 .336 0 .336-.336 0-.7.056-.532-.56-.56h-1.68c-.252 0-.252 0-.28-.28v-1.427c0-.168.056-.252.252-.252h1.96c.336 0 .336 0 .336-.336 0-.7.056-.56-.532-.56H2.106c-.308 0-.308 0-.308-.336v-1.343c0-.252 0-.252.28-.252h1.96c.308 0 .308 0 .308-.336 0-.7.056-.56-.56-.56h-1.68c-.168 0-.252-.056-.252-.252v-1.428c0-.251 0-.279.28-.279h1.96c.308 0 .308 0 .308-.308 0-.672.056-.56-.532-.56H2.19c-.28 0-.28 0-.28-.252v-1.428c0-.252 0-.252.28-.252h4.535c.28 0 .28 0 .28-.28.028-.615.028-.615-.616-.615H2.134c-.14 0-.168-.056-.168-.168v-1.54c0-.224.112-.168.252-.168h1.96c.308 0 .336 0 .336-.308 0-.728.084-.616-.616-.616H2.246c-.252 0-.28 0-.28-.251V33.29c0-.168.056-.252.252-.252h1.96c.336 0 .336 0 .336-.336 0-.56 0-.56-.56-.56h-1.68c-.168 0-.252-.056-.252-.252v-1.427c0-.252 0-.252.28-.252h1.96c.308 0 .308 0 .308-.336 0-.672.056-.56-.532-.56H2.386c-.308 0-.308 0-.308-.308v-1.399c0-.168.056-.252.252-.252h1.96c.336 0 .336 0 .336-.336 0-.672.083-.532-.56-.532h-1.68c-.252 0-.252 0-.28-.28v-1.4c0-.279 0-.279.28-.279h4.34c.475 0 .447.055.42-.42 0-.532.055-.476-.477-.476H2.33c-.14 0-.252-.028-.224-.224V1.743c0-.112.056-.224.168-.168h61.694c.336 0 .364 0 .364.364V23.437c0 .14-.056.168-.168.168h-4.479c-.112 0-.168.056-.168.168v.056c0 .811-.084.672.644.672h4.06c.083 0 .14.028.14.139v1.624zM65.088.008H.54c-.616 0-.532-.112-.532.504v83.051c0 .616-.112.532.532.532H65.06c.532 0 .532 0 .532-.532V.512c0-.588.112-.504-.504-.504z" fill="#FFF" mask="url(#4g8eu1lkfb)"/>
        </g>
        <path d="M53.982 21.785c-3.443.084-6.606.896-9.321 3.08-.084-.085-.028-.169 0-.253.364-.896.756-1.763 1.119-2.687.14-.364.392-.644.7-.868.476-.364 1.008-.616 1.568-.812 1.203-.419 2.435-.643 3.695-.783l1.203-.084c.14 0 .252.028.28.168.112.755.392 1.455.756 2.1v.14zm-5.318 10.161c.699.868 1.23 1.82 1.707 2.8.28.531.504 1.12.728 1.68.056.14.056.251-.084.335a5.685 5.685 0 0 0-1.708 1.315c-.056.056-.084.084-.14.084-1.147-3.219-2.883-5.99-5.822-7.92.056-.113.112-.057.168-.057 1.008.084 1.987.14 2.939.251.42.028.784.224 1.12.448.42.308.756.672 1.092 1.064zm-7.138-2.715c-.504 1.455-1.092 2.883-1.68 4.34-.028.055-.028.138-.112.25a.635.635 0 0 1-.084-.307c-.364-1.512-.728-2.996-1.035-4.479-.056-.336-.056-.336-.392-.336a70.223 70.223 0 0 1-3.387-.168c-.504-.028-1.036-.056-1.512-.084-.028-.112.084-.14.14-.168a191.373 191.373 0 0 1 4.03-2.407c.309-.168.309-.168.225-.476-.42-1.484-.812-2.995-1.176-4.479-.028-.056-.028-.112-.056-.252.14 0 .224.112.308.168 1.176 1.008 2.323 1.988 3.443 3.023.28.252.224.28.532.028a122.154 122.154 0 0 1 4.003-2.547c.168-.084.168-.028.112.056-.616 1.456-1.204 2.883-1.876 4.34-.14.363-.168.307.14.56 1.204.922 2.35 1.902 3.527 2.854.056.056.168.084.168.224-.14.028-.28 0-.42 0a115.53 115.53 0 0 1-4.478-.42c-.308-.028-.308-.084-.42.28zm-3.051 5.878a7.995 7.995 0 0 1-.84 1.512c-.728 1.035-1.596 1.903-2.52 2.715-.251.252-.503.448-.783.672-.084.084-.168.112-.28.028-.56-.532-1.204-1.008-1.96-1.316a.546.546 0 0 1 .28-.28c1.26-1.008 2.38-2.099 3.33-3.415.897-1.232 1.625-2.603 2.045-4.087.028-.056.028-.112.056-.224l.084-.084c.084.392.168.756.28 1.12.14.616.28 1.204.42 1.764a2.606 2.606 0 0 1-.112 1.595zm-6.914-7.558c-.756-.056-1.456-.28-2.156-.532-1.26-.475-2.435-1.147-3.583-1.875-.112-.084-.252-.14-.14-.336.336-.672.532-1.399.644-2.127 0-.056 0-.084.028-.168a17.985 17.985 0 0 0 4.479 2.323c1.595.532 3.247.784 4.954.7-.056.14-.168.14-.252.224-.783.476-1.567.924-2.323 1.427-.504.336-1.064.42-1.651.364zm5.066-11.224c.084-1.288.308-2.548.644-3.835.084-.364.084-.364.448-.308a6.545 6.545 0 0 0 1.959-.056h.168c.028.14-.028.28-.056.392-.42 1.483-.672 2.94-.7 4.478-.028 1.596.168 3.163.756 4.703.028.084.056.224.084.308.028 0 .028 0 .028.028-.112-.028-.168-.112-.28-.224-.672-.56-1.315-1.176-2.015-1.736-.42-.335-.672-.755-.812-1.259-.252-.812-.28-1.652-.224-2.49zm20.042 6.466c-.028-.028-.056-.056-.084-.056-.98-.392-1.623-1.148-2.015-2.072-.224-.616-.392-1.23-.448-1.903-.028-.364-.028-.364-.392-.364-1.511.028-2.967.168-4.423.504-1.175.252-2.295.616-3.303 1.343 0 0-.056.028-.084-.028 0-.112.056-.168.084-.25.168-.365.308-.729.392-1.12.224-.729.308-1.457.336-2.212.084-1.512-.028-3.052-.252-4.563-.028-.28-.056-.28-.336-.28-.532 0-1.063.028-1.567-.056-1.204-.168-2.212-.672-2.883-1.764 0-.028-.028-.028-.056-.028-.056.028-.084.084-.14.14a3.218 3.218 0 0 1-1.428.952c-.644.252-1.344.308-2.043.252a7.73 7.73 0 0 1-1.12-.168c-.196-.056-.28 0-.308.168-.028.056-.028.112-.056.168-.42 1.456-.756 2.967-.868 4.507-.084 1.147-.084 2.295.28 3.415 0 .028.028.084-.028.112-.028-.028-.056-.028-.084-.056-.56-.56-1.175-.952-1.875-1.316-1.12-.56-2.295-.924-3.471-1.26-.7-.195-1.428-.363-2.155-.475-.252-.028-.28-.028-.336.224 0 .056 0 .111-.028.167-.196.756-.476 1.456-.952 2.1-.504.7-1.148 1.175-2.016 1.4-.056 0-.083 0-.111.055 0 .028 0 .056.028.084.53.868.643 1.792.419 2.744-.14.727-.447 1.343-.811 1.987-.168.252-.168.28.084.42 1.37.924 2.855 1.763 4.422 2.407.812.308 1.624.56 2.492.644.224 0 .419.028.643.028 0 .084-.056.084-.084.112-.783.392-1.427.924-1.987 1.54-1.316 1.4-2.323 2.995-3.22 4.646-.167.252-.167.252.085.392.588.364 1.092.756 1.539 1.26.588.671.98 1.427 1.036 2.323v.532c.112.056.196 0 .28 0a1.19 1.19 0 0 1 .308-.056c.952-.084 1.819.196 2.603.728a7.63 7.63 0 0 1 1.316 1.203c.14.168.196.168.364.028 1.483-1.147 2.855-2.379 4.003-3.89.53-.7.979-1.456 1.259-2.324 0-.028.028-.056.084-.056.112.952.476 1.82.952 2.66.896 1.595 2.07 3.022 3.33 4.338.169.168.169.168.393 0a7.265 7.265 0 0 1 1.65-1.064 4.21 4.21 0 0 1 2.269-.308c.28.084.504.196.783.252.056-.056.056-.112.056-.168.14-1.063.644-1.875 1.456-2.547a6.2 6.2 0 0 1 1.624-.952c.25-.112.25-.112.167-.419-.391-1.12-.867-2.156-1.4-3.19-.727-1.457-1.623-2.8-2.938-3.808.756.112 1.51.084 2.295.112 2.043-.308 3.919-1.064 5.766-1.932.252-.112.252-.112.14-.392-.252-.672-.448-1.315-.504-2.015-.055-.98.14-1.848.756-2.63.056-.085.14-.14.112-.225z" fill="#FFF"/>
        <path d="M44.885 21.393c-.028-.056-.056-.084-.056-.14.028-.056.084-.112.14-.084.056.084-.028.14-.084.224M34.024 6.726c-.952 0-1.652-.756-1.652-1.764 0-.923.756-1.651 1.708-1.623.924 0 1.624.756 1.624 1.763 0 .924-.7 1.624-1.68 1.624m2.715-2.883c-.42-.952-1.203-1.484-2.267-1.596-.532-.056-1.008.028-1.484.168-1.371.448-2.127 1.708-1.875 3.107.224 1.372 1.343 2.296 2.827 2.296.14 0 .28 0 .476-.056.784-.14 1.483-.42 1.987-1.092.7-.868.756-1.82.336-2.827" fill="#FFF"/>
        <g transform="translate(123.918 87.123)">
            <mask id="16xd9ifxpd" fill="#fff">
                <use xlink:href="#idlhg1g7hc"/>
            </mask>
            <path d="M3.71 5.79c-.447.952-1.68 1.12-2.294.252-.364-.504-.448-1.092-.28-1.68.224-.671.784-1.063 1.483-1.007.644.056 1.12.532 1.204 1.23.028.085.028.225.028.337 0 .308-.028.616-.14.868m.952-1.652C4.41 3.383 3.935 2.85 3.15 2.627c-.784-.224-1.483-.056-2.043.56-.056.056-.084.112-.168.224-.112-.784.14-1.652.448-2.044.112-.14.28-.308.448-.42a1.217 1.217 0 0 1 1.707.448c.112.168.028.42.252.476.168.056.392 0 .56-.028.252 0 .28-.028.224-.252C4.439.835 4.019.33 3.263.108 2.17-.2 1.023.136.463 1.31c-.111.224-.195.42-.251.672-.224.896-.252 1.82-.168 2.715.056.504.14 1.008.392 1.456.504.896 1.26 1.26 2.267 1.204.924-.084 1.512-.588 1.848-1.4.224-.616.28-1.204.112-1.82" fill="#FFF" mask="url(#16xd9ifxpd)"/>
        </g>
        <path d="M42.87 3.703c-.085.336-.42.56-.84.532-.56 0-.952-.392-.896-.896.027-.336.223-.532.503-.644.392-.112.784-.084 1.092.224.224.224.28.476.14.784m1.372-.28c-.364-1.511-2.324-2.267-3.61-1.344-.589.42-.785.98-.7 1.652.055.588.42 1.008.951 1.26.252.112.475.14.755.168a2.13 2.13 0 0 0 1.344-.364c0 .727-.476 1.37-1.204 1.37-.28.029-.532 0-.81-.055-.169-.028-.309-.224-.477-.14-.168.084-.224.336-.308.476-.028.028-.028.084-.056.112-.14.224-.14.252.112.364.392.224.84.28 1.287.308 1.316.056 2.296-.616 2.66-1.82a4.34 4.34 0 0 0 .056-1.987M48.16 6.026a1.363 1.363 0 0 1-.308.504c-.476.476-1.232.336-1.511-.308-.028-.112-.084-.224-.084-.336-.056-.7.056-1.344.39-1.96.253-.42.617-.615 1.009-.503.392.056.672.364.756.839.028.084.028.252.028.336-.028.504-.084 1.008-.28 1.428m1.484-1.875c-.224-1.344-1.568-2.128-2.856-1.736-.671.168-1.091.616-1.4 1.232-.28.532-.391 1.119-.42 1.679.029.196.029.448.113.588.14.952.672 1.596 1.595 1.847 1.008.28 1.988-.111 2.52-1.063.448-.784.588-1.652.448-2.547M53.758 5.998c-.084.56-.28 1.12-.56 1.596a1.418 1.418 0 0 1-.336.363c-.532.392-1.287.084-1.427-.56-.028-.083-.028-.223-.028-.335.056-.672.28-1.26.671-1.848a1.16 1.16 0 0 1 .336-.308.873.873 0 0 1 1.288.42c.084.224.084.448.056.672m-.14-2.043c-.896-.364-1.819-.224-2.463.503-.728.812-1.092 1.792-.952 2.94.14.839.644 1.427 1.456 1.707.811.308 1.595.168 2.239-.448a3.777 3.777 0 0 0 1.092-2.435c0-1.176-.504-1.96-1.372-2.267M116.88 92.437c-.056.336-.168.644-.42.868a1.143 1.143 0 0 1-1.68.028 1.519 1.519 0 0 1-.42-.812c-.168-.532-.168-1.148-.195-1.708 0-.56.027-1.147.14-1.707a2.05 2.05 0 0 1 .251-.644c.42-.728 1.316-.812 1.904-.224.252.252.364.532.42.868a8.34 8.34 0 0 1 0 3.33m.952-2.966c-.084-.532-.224-1.008-.532-1.456-.28-.42-.672-.727-1.176-.811-1.063-.224-1.96.112-2.463 1.203a3.198 3.198 0 0 0-.252.728c-.113.532-.14 1.092-.14 1.623 0 .448 0 .896.055 1.344.056.476.197.924.42 1.344.7 1.315 2.8 1.37 3.584.112a4.26 4.26 0 0 0 .447-1.176c.197-.952.197-1.96.056-2.911M111.337 92.493c-.084.308-.224.616-.42.84-.504.504-1.204.504-1.679 0-.28-.308-.42-.672-.476-1.064-.14-1.064-.168-2.1.028-3.163.028-.224.112-.42.224-.644.42-.756 1.315-.868 1.931-.252.224.224.336.476.392.784.084.616.14 1.204.14 1.792 0 .559-.028 1.147-.14 1.707m1.036-1.707c0-.252 0-.476-.084-.728-.028-.7-.168-1.344-.532-1.988-.728-1.231-2.687-1.26-3.443-.14-.224.392-.42.784-.504 1.232-.168.812-.168 1.65-.112 2.463.028.532.14 1.092.392 1.624s.616.924 1.148 1.09c1.035.337 2.155.057 2.687-1.118.112-.168.168-.364.224-.532.196-.644.252-1.26.224-1.903M53.898 13.808c-.224.28-.476.28-.756.224-.392-.084-.644-.448-.616-.896.028-.42.28-.756.7-.84.364-.084.728.112.896.448.196.364.112.784-.224 1.064a1.758 1.758 0 0 1-.308-.336c-.084-.14-.112-.28.028-.392.112-.084.224-.168.084-.336-.112-.14-.308-.112-.448-.084-.14.028-.224.112-.168.28.028.084-.084.336.224.252.084-.028.168.056.252.168.056.14.168.336.336.448M43.457 51.709c0 1.064-.784 1.875-1.847 1.847-1.036-.028-1.764-.783-1.764-1.847s.756-1.847 1.82-1.847c1.063-.028 1.791.755 1.791 1.847M36.739 51.709c0 1.064-.756 1.847-1.763 1.847-1.036 0-1.82-.783-1.848-1.847 0-1.064.756-1.847 1.82-1.847 1.09-.028 1.79.755 1.79 1.847M53.114 50.869v-.784c0-.112.056-.224.168-.224.448 0 .896-.056 1.316.056.615.14.895.616.755 1.232-.084.392-.364.616-.727.7-.448.084-.896.056-1.4.056-.14 0-.168-.084-.168-.224.056-.28.056-.532.056-.812M48.188 50.197c.28.672.532 1.344.812 1.987a.347.347 0 0 1-.056.084c-.476.056-1.008.028-1.484.028-.14 0-.168-.056-.112-.224.252-.615.504-1.203.756-1.847 0 .028.028.028.084-.028M55.55 64.92v-1.035c0-.14.055-.252.251-.252.308 0 .616 0 .896.028.643.056 1.063.532 1.091 1.204.028.672-.364 1.148-.95 1.288-.365.084-.7.028-1.065.028-.14 0-.224-.084-.224-.252V64.92M48.328 65.117c-.56 0-.504.056-.532-.532v-.672c0-.14.056-.252.224-.252.28 0 .532 0 .812.028.392.056.616.308.616.672 0 .392-.168.644-.56.728-.196.028-.392 0-.56.028M23.639 64.36v-.531c0-.112.056-.168.168-.168.336 0 .672-.028 1.008.056.336.084.476.336.476.672s-.14.56-.476.672c-.336.112-.7.056-1.036.056-.112 0-.14-.084-.14-.168v-.588zM51.07 73.766c0 .392-.28.672-.671.672-.364 0-.672-.364-.7-.784 0-.364.308-.672.672-.672.392.028.7.364.7.784M25.682 72.562a.76.76 0 0 1-.476-.168.298.298 0 0 1-.056-.336c.056-.112.14-.168.28-.14.252.028.42.14.616.252.056.028.056.112.028.168-.084.168-.224.224-.392.224M116.236 57.195c-.028.168-.14.28-.224.364l-2.855 3.527c-.252.308-.28.476 0 .784a196.088 196.088 0 0 1 3.303 3.779c.084.084.168.223.28.307-.056.112-.14.084-.252.084h-2.463c-.224 0-.336-.056-.448-.224a101.231 101.231 0 0 0-2.687-3.303c-.084-.112-.14-.251-.336-.251-.224 0-.448-.028-.672 0-.056 0-.084.055-.084.111V65.677c0 .335 0 .335-.336.335h-1.68c-.167 0-.251-.056-.251-.252V57.391c-.028-.168.056-.252.25-.252h1.765c.252 0 .252 0 .252.28V60.582c0 .14.056.252.252.252h.056c.392.056.672-.084.924-.42.783-1.036 1.595-2.015 2.379-3.051.14-.168.308-.28.532-.252.755.084 1.51.084 2.295.084M131.911 63.969c.532.112 1.064.252 1.568.336 1.035.168 2.015.308 3.08.168.28-.028.502-.084.754-.224.308-.168.448-.42.42-.784-.028-.336-.224-.532-.504-.672-.53-.224-1.119-.28-1.65-.336-.56-.084-1.12-.168-1.653-.335-.112-.028-.252-.084-.363-.112-1.428-.532-1.764-1.652-1.512-2.94.14-.699.616-1.147 1.232-1.483.447-.224.923-.336 1.427-.392a12.661 12.661 0 0 1 4.48.28c.083.028.14.056.251.056.112.028.14.084.14.224v1.231c0 .168-.056.168-.224.14-.532-.112-1.064-.224-1.596-.307-.839-.084-1.679-.168-2.519-.028a3.725 3.725 0 0 0-.532.139c-.28.14-.42.364-.42.7 0 .336.168.532.448.644.448.168.896.224 1.4.308.672.084 1.287.168 1.96.364.307.084.615.168.895.336.644.336 1.008.868 1.092 1.567.028.308.056.616.028.896-.084.84-.532 1.456-1.288 1.848-.616.335-1.26.447-1.93.503-1.485.14-2.913 0-4.368-.28a.866.866 0 0 1-.224-.056c-.308-.083-.308-.083-.308-.391-.084-.448-.084-.896-.084-1.4M101.4 60.078v-2.49c0-.449 0-.393.42-.393h1.483c.28 0 .28 0 .28.252v5.094c0 .476-.084 1.008-.252 1.456-.307.896-.895 1.511-1.763 1.847-.868.308-1.82.364-2.715.308-.392-.028-.812-.056-1.204-.14-1.511-.364-2.351-1.287-2.519-2.855a15.014 15.014 0 0 1-.056-1.148V57.391c0-.14.028-.224.224-.224h1.875c.112 0 .168.056.168.168v4.926c0 .28.028.532.056.812.14.784.56 1.232 1.344 1.4.42.084.868.084 1.287 0 .728-.14 1.148-.56 1.288-1.288.084-.364.084-.728.084-1.092v-2.015zM124.213 76.23a156.637 156.637 0 0 1-.28 3.61c-.028.28-.028.28-.308.28h-.224c-.14 0-.168-.056-.168-.224.084-1.232.224-2.49.308-3.723.028-.308.056-.616.056-.868 0-.168.084-.252.28-.252.7-.028.7-.028.952.644.364.868.7 1.708 1.064 2.603.028.084.083.168.111.308.112-.056.14-.168.168-.252.42-.95.812-1.959 1.232-2.939.084-.252.224-.336.448-.308.672.028.616-.112.672.644.084 1.344.224 2.715.336 4.06.028.391.028.391-.392.391-.308 0-.308 0-.308-.28-.084-1.176-.168-2.379-.28-3.555 0-.084 0-.14-.028-.28-.112.084-.14.224-.168.336-.392.924-.812 1.903-1.204 2.827-.112.308-.336.392-.643.308-.14-.028-.14-.168-.224-.28-.42-.952-.812-1.903-1.204-2.855a.473.473 0 0 1-.056-.14c-.084-.168-.112-.084-.14-.056M127.936 69.26c-.112.083-.112.223-.168.335-.392.924-.812 1.903-1.204 2.827-.084.224-.224.252-.419.28-.224 0-.308-.056-.392-.28-.392-.924-.784-1.875-1.176-2.799-.056-.112-.056-.252-.168-.364-.084.532-.084 1.092-.14 1.596a54.945 54.945 0 0 0-.14 2.211c-.028.28-.028.28-.308.28-.42.028-.448.028-.42-.42.112-1.484.252-2.939.364-4.395.028-.252.028-.252.28-.252.7-.028.7-.028.952.644.364.84.7 1.708 1.064 2.547.056.112.056.252.167.336.084-.084.112-.252.168-.364.392-.95.812-1.903 1.204-2.855.084-.224.224-.336.448-.308.14.028.28 0 .42 0 .14 0 .224.056.224.224.028.448.084.896.112 1.4.084 1.064.14 2.1.252 3.163.028.308 0 .308-.308.308h-.168c-.14 0-.224-.056-.224-.224-.028-.336-.056-.672-.056-1.008-.056-.84-.112-1.679-.168-2.49-.14-.113-.112-.253-.196-.393M95.466 71.863c.308-.7.532-1.288.812-1.931.224-.476.392-.952.616-1.456.056-.14.14-.252.308-.224.223.028.475-.084.67.028.169.112.085.392.085.616.084 1.092.168 2.127.28 3.219l.084 1.008c.028.168-.028.252-.224.252h-.14c-.336 0-.336 0-.364-.336-.084-1.12-.14-2.24-.252-3.331 0-.112 0-.28-.056-.42-.111.112-.14.252-.167.364-.392.923-.812 1.903-1.204 2.827-.084.224-.252.252-.42.252-.224 0-.308-.056-.392-.28l-1.176-2.771c-.056-.112-.084-.252-.167-.364-.084.112-.056.252-.084.392-.084 1.09-.14 2.21-.252 3.275 0 .056 0 .14-.028.224 0 .112-.056.14-.168.168-.476.056-.532 0-.504-.448.112-1.456.252-2.911.336-4.367 0-.168.084-.252.252-.252.252.028.503-.084.699.028.168.112.224.392.28.616.364.84.7 1.707 1.064 2.547-.028.084.028.196.112.364M107.334 72.143c.056-.112.028-.252.028-.336v-3.331c0-.112.028-.168.14-.168h.112c.476 0 .42-.028.42.392v4.535c0 .112-.056.112-.112.112h-.56c-.112 0-.168-.112-.224-.224-.168-.336-.364-.7-.56-1.036a99.1 99.1 0 0 0-1.287-2.351 1.231 1.231 0 0 1-.168-.336c-.056.14-.056.28-.056.392v3.219c0 .308 0 .308-.308.308h-.224c-.112 0-.168-.028-.168-.14V68.42c0-.084.028-.14.14-.14h.616c.168 0 .224.14.252.28.475.868.923 1.764 1.427 2.659.14.28.28.504.42.784 0 .028 0 .112.112.14M135.102 69.455v3.555c0 .364 0 .364-.364.364h-.14c-.112 0-.168-.028-.168-.168v-4.703c0-.14.056-.168.224-.168.644-.028.644-.056.952.504.532 1.008 1.092 2.016 1.623 3.023.056.084.084.224.224.308.056-.112.028-.224.028-.308v-3.359c0-.112.028-.14.14-.168.476-.056.532-.028.532.476V73.206c0 .112-.056.168-.168.168h-.42c-.168 0-.28-.056-.336-.224-.168-.364-.392-.728-.615-1.092-.42-.756-.84-1.539-1.26-2.295-.056-.112-.084-.224-.252-.308M114.136 70.827v-1.008c.028-.783.42-1.259 1.176-1.483.504-.14 1.035-.14 1.54-.084l.671.084c.28.056.28.056.28.308 0 .308 0 .308-.308.28-.448-.056-.896-.084-1.4-.056-.112 0-.25 0-.363.028-.672.112-.924.447-.924 1.119v1.624c0 .672.308 1.035 1.008 1.119.475.084.951.028 1.427-.112.14-.056.252-.111.224-.307v-.672c0-.168-.056-.252-.252-.224h-.616c-.168 0-.252-.056-.252-.252v-.168c0-.14.056-.168.168-.168h1.344c.112 0 .168.056.168.168v1.763c0 .112-.056.168-.14.252-.896.448-1.876.532-2.799.224-.644-.224-.924-.7-1.008-1.315.028-.42.056-.756.056-1.12M119.119 77.601v-2.239c0-.308 0-.308.308-.308h2.547c.084 0 .224-.028.252.084.028.14.056.336 0 .476-.028.084-.14.056-.252.056h-1.903c-.168-.028-.252.056-.252.251v1.176c0 .168.056.252.252.252h1.623c.084 0 .252-.056.28.084.028.14.056.336-.028.476-.028.084-.14.056-.252.056h-1.567c-.336 0-.336 0-.336.336v.868c0 .363 0 .363.336.363h1.959c.14 0 .168.056.168.168v.028c.028.392.028.392-.364.392h-2.435c-.364 0-.364 0-.364-.336.028-.727.028-1.483.028-2.183M130.148 70.799V68.56c0-.28 0-.28.28-.28h2.603c.252 0 .252 0 .252.28 0 .364 0 .364-.336.364h-1.82c-.251 0-.251 0-.28.279v1.092c0 .28 0 .28.309.28h1.567c.084 0 .168-.028.28.056.028.056 0 .448-.028.476-.056.056-.14.028-.252.028h-1.707c-.112 0-.168.056-.168.168v1.232c0 .167.084.167.252.167H133.115c.168 0 .252.056.224.252v.224c0 .112-.056.168-.168.168H130.484c-.308 0-.308 0-.308-.308-.028-.727-.028-1.483-.028-2.239M119.23 70.799V68.56c0-.28 0-.28.28-.28h2.548c.308 0 .308 0 .308.308 0 .336 0 .336-.336.336h-1.763c-.308 0-.308 0-.308.279v1.148c0 .168.056.252.252.224h1.623c.084 0 .252-.056.28.084.028.14.056.308-.028.448-.028.084-.14.056-.252.056H120.183c-.168 0-.28.028-.252.252v1.147c0 .168.084.252.28.252h2.099c.112 0 .112.056.112.14v.252c0 .168-.084.224-.252.224H119.483c-.252 0-.252 0-.252-.28v-2.351M103.667 74.998c.392.028.728.028 1.064.084.168.028.28.084.28.308v.168c0 .14-.056.224-.224.168a5.32 5.32 0 0 0-1.148-.112c-.168 0-.336.028-.476.056-.252.056-.448.168-.504.448-.056.28 0 .532.252.727.168.112.364.252.532.336l1.008.504c.532.308.84.728.728 1.596-.056.42-.308.672-.728.812-.42.11-.84.139-1.26.139a13.595 13.595 0 0 1-1.12-.14c-.167-.027-.279-.083-.279-.307v-.252c0-.112.056-.14.14-.112.251.056.447.084.7.112.335.056.7.056 1.035.028.084 0 .224-.028.308-.056.252-.056.42-.168.448-.42.056-.252 0-.476-.224-.7-.112-.112-.252-.168-.392-.252-.42-.224-.84-.42-1.26-.672-.615-.336-.81-.755-.67-1.623.055-.392.334-.644.726-.756a1.19 1.19 0 0 1 .308-.056c.308 0 .532-.028.756-.028M132.947 75.753a7.034 7.034 0 0 1-.756-.112 2.719 2.719 0 0 0-1.063.028c-.28.056-.476.224-.504.504-.056.28.028.504.28.7.252.168.503.308.783.42.28.14.56.28.84.447.616.364.84 1.148.56 1.764-.112.308-.364.448-.672.532-.42.112-.868.14-1.287.112-.364-.028-.7-.084-1.064-.14-.28-.028-.28-.056-.28-.336 0-.112-.028-.252.028-.364.532.112 1.064.224 1.595.224.168 0 .364-.028.504-.056.224-.056.392-.14.448-.392.056-.28.028-.504-.168-.728a.553.553 0 0 0-.308-.168c-.364-.168-.727-.364-1.063-.532-.112-.056-.252-.112-.336-.168-.616-.39-.812-1.119-.532-1.819.112-.308.364-.476.672-.532.727-.168 1.455-.112 2.155 0 .112.028.14.084.14.224.056.084.084.224.028.392M113.66 75.753c-.28-.028-.504-.084-.784-.112-.364-.028-.7-.056-1.063.028-.28.056-.448.224-.504.476-.056.28.028.504.28.7.168.14.391.252.56.336.335.168.7.363 1.035.531.672.364.784 1.036.616 1.736-.084.336-.364.504-.672.616-.364.112-.756.14-1.148.14-.419 0-.81-.084-1.23-.14-.169-.028-.28-.112-.253-.308 0-.112-.028-.252.028-.364.308.056.616.112.896.14.392.056.811.056 1.203-.028.252-.056.476-.14.504-.448.028-.308-.028-.56-.308-.756-.28-.14-.56-.308-.84-.448-.279-.14-.559-.28-.839-.447-.56-.392-.756-1.204-.42-1.848.112-.252.336-.392.616-.448.28-.084.532-.084.84-.112.42 0 .84.028 1.26.084.167.028.28.112.251.308 0 .112.028.196-.028.364M105.655 75.082c.028-.028.028-.028.056-.028.7-.056.7-.056 1.008.532.336.644.67 1.259 1.007 1.875.056.084.084.168.14.28.112-.084.14-.224.224-.308.364-.7.728-1.4 1.064-2.071.112-.28.308-.392.616-.364.112.028.252-.028.336.028 0 .112-.084.224-.112.336-.504.952-1.064 1.903-1.568 2.855-.112.168-.14.392-.14.616v1.036c0 .14-.056.252-.224.252-.56 0-.504.028-.476-.448.056-.784-.112-1.512-.531-2.156-.42-.672-.756-1.343-1.148-2.043-.168-.112-.252-.224-.252-.392M116.74 77.909v1.959c0 .28 0 .28-.28.28-.448 0-.42.056-.42-.392V75.922c0-.14-.056-.252-.253-.252h-1.063c-.168 0-.28-.056-.252-.252v-.224c0-.084.029-.14.14-.14h3.275c.085 0 .252-.056.308.056a.695.695 0 0 1 0 .476c-.027.084-.111.056-.223.056h-1.008c-.308 0-.308 0-.308.336.084.643.084 1.287.084 1.93M140.505 71.107v-1.875c0-.336 0-.336-.336-.336h-.84c-.364 0-.364 0-.364-.364 0-.28 0-.28.28-.28h3.191c.084 0 .252-.056.308.056a.695.695 0 0 1 0 .476c-.028.084-.14.056-.224.056h-.951c-.364 0-.364 0-.364.336v3.918c0 .112-.028.168-.14.168h-.112c-.42.028-.42.028-.42-.42-.028-.503-.028-1.091-.028-1.735M126.257 9.273c0 .308-.252.56-.532.56a.544.544 0 0 1-.56-.56c0-.308.28-.532.56-.532.28-.028.532.224.532.532M126.733 15.487c-.308 0-.532-.28-.532-.56 0-.336.28-.56.616-.56.308 0 .532.28.532.56a.61.61 0 0 1-.616.56M108.986 10.477c0 .308-.252.56-.532.56a.58.58 0 0 1-.56-.56c0-.308.252-.532.56-.532.308-.056.532.196.532.532M119.819 9.637c-.308 0-.532-.28-.532-.56 0-.336.28-.56.616-.532.308 0 .532.28.532.56-.084.28-.336.532-.616.532M108.454 13.444c0 .308-.252.56-.532.56-.336 0-.56-.224-.56-.532 0-.336.252-.616.56-.616.252.056.532.28.532.588M124.325 9.077a.538.538 0 0 1-.56-.532c0-.336.28-.616.56-.56.308 0 .56.28.532.56.028.252-.196.532-.532.532M108.454 11.904c0 .308-.252.532-.56.532a.544.544 0 0 1-.56-.56c0-.308.28-.532.56-.532.308 0 .56.28.56.56M127.796 11.904c0 .308-.252.532-.56.56a.538.538 0 0 1-.56-.532c0-.336.252-.616.56-.56.28-.028.56.252.56.532M127.237 12.912c.308 0 .56.28.56.56 0 .336-.28.56-.617.56-.308 0-.532-.28-.532-.56.029-.336.28-.588.589-.56M110.777 9.077c-.336 0-.532-.252-.532-.56 0-.308.252-.56.532-.56s.616.28.56.616c0 .28-.252.504-.56.504M127.237 10.477a.58.58 0 0 1-.56.56c-.28 0-.56-.28-.56-.616 0-.308.28-.532.56-.532.335 0 .56.252.56.588M109.993 9.301c0 .308-.28.532-.56.532-.336 0-.56-.28-.532-.616a.575.575 0 0 1 .56-.532c.308.028.56.308.532.616M108.93 14.927c0 .308-.252.56-.532.56-.308 0-.56-.224-.56-.532-.028-.336.252-.616.532-.616.28.056.56.28.56.588M121.862 8.517c0 .308-.252.56-.532.56s-.56-.224-.56-.532c0-.308.252-.616.56-.616.252.028.504.28.532.588M113.856 9.077c-.308 0-.56-.252-.56-.532s.224-.56.532-.56c.336 0 .616.252.616.56a.602.602 0 0 1-.588.532M122.786 7.705c.308 0 .532.252.532.56 0 .336-.252.56-.532.56-.336 0-.616-.28-.56-.56.028-.336.252-.56.56-.56M115.872 9.049c0 .308-.252.56-.532.56a.58.58 0 0 1-.56-.56c0-.28.28-.532.56-.532.28-.028.532.224.532.532M112.877 8.265c0 .336-.252.532-.56.532-.308 0-.56-.252-.56-.532 0-.336.28-.56.56-.56.308 0 .56.224.56.56" fill="#FFF"/>
        <path d="M124.213 76.23v-.057c0-.056 0-.112.028-.14.084-.028.084.056.084.112-.028.056-.056.084-.112.084M53.898 13.808c-.224 0-.308-.14-.392-.308-.056-.084-.084-.28-.252-.252-.14.028-.056.224-.084.308v.084c0 .056-.056.084-.084.084-.056 0-.084-.028-.084-.084a6.4 6.4 0 0 1 0-1.036.12.12 0 0 1 .112-.112c.14 0 .336-.028.476 0 .28.056.392.364.224.532-.168.168-.14.308-.028.476.056.14.084.224.112.308M117.523 52.744c-7.978 0-14.444-6.466-14.528-14.332-.084-7.92 6.27-14.556 14.304-14.667 8.146-.112 14.696 6.466 14.696 14.471 0 8.006-6.466 14.528-14.472 14.528m-.028-30.707c-8.985.028-16.123 7.25-16.179 16.067-.056 9.042 7.25 16.32 16.207 16.32a16.152 16.152 0 0 0 16.18-16.18c0-8.957-7.25-16.207-16.208-16.207M125.613 16.607c-.308.756-.616 1.54-.924 2.295-.084.252-.112.252-.336.168-.783-.252-1.287-.755-1.483-1.567a1.5 1.5 0 0 1 .084-.868c.112-.28.364-.392.616-.28.224.084.335.42.112.672-.084.112-.112.14-.084.168.336.084.615-.028.783-.308.168-.28.168-.672-.028-.924-.308-.364-.671-.392-1.147-.14.112-.364.224-.7.252-1.035.028-.252 0-.476-.056-.7-.112-.42-.42-.476-.728-.168a2.483 2.483 0 0 0-.392.7c-.084.307-.14.615-.14.895-.14 0-.168-.112-.252-.168-.28-.224-.644-.252-.896-.084-.308.168-.42.42-.392.784.028.336.224.532.56.672.056-.056 0-.112 0-.224 0-.252.168-.448.392-.448s.392.14.42.392c.028.224-.028.392-.084.56-.252.616-.7.924-1.288 1.092-1.007.279-2.015-.252-2.435-1.176-.056-.14-.112-.28-.112-.476.812.112 1.456.532 1.988 1.204V14.48c-.532.643-1.148 1.09-1.988 1.175.056-.448.252-.784.532-1.063.224-.168.252-.364.252-.644v-2.603c0-.336.056-.308.28-.336.952-.14 1.903-.42 2.827-.784 1.036-.392 1.959-.224 2.743.532.784.755.952 1.679.672 2.715-.056.224-.14.392-.252.616-.308.81-.224 1.539.42 2.127.112.112.14.252.084.392m-8.537.168c-.448 1.232-1.932 1.763-3.08 1.12a1.694 1.694 0 0 1-.811-1.092c-.028-.14-.056-.28-.028-.42a.42.42 0 0 1 .42-.364c.223 0 .363.168.39.392 0 .084-.055.168 0 .28a.835.835 0 0 0 .617-.7c.028-.308-.14-.644-.448-.756-.42-.168-.783-.056-1.091.336-.056-.308-.084-.532-.14-.783-.056-.308-.224-.56-.392-.812-.112-.14-.28-.28-.448-.224-.168.056-.252.224-.308.364-.112.42-.056.839.056 1.259.028.112.084.28.14.448-.448-.224-.84-.224-1.176.168a.717.717 0 0 0-.028.896c.168.28.448.392.784.308.028-.084-.056-.112-.084-.168-.084-.224-.056-.448.14-.532.224-.112.448-.056.56.14.224.364.224.756.084 1.148-.224.755-.756 1.175-1.484 1.427-.14.056-.252 0-.308-.14-.307-.783-.643-1.567-.923-2.38-.056-.14-.056-.251.056-.335.672-.644.783-1.4.42-2.24-.112-.28-.252-.56-.308-.867-.168-1.008.112-1.847.867-2.463.784-.672 1.68-.812 2.632-.448.895.364 1.819.644 2.77.784.337.056.337.056.337.363v2.632c0 .224.056.364.224.504.364.279.532.615.587 1.063-.811-.112-1.427-.532-1.96-1.147-.055 1.035-.027 2.043 0 3.079.533-.616 1.149-1.036 1.96-1.148.056.112 0 .224-.027.308m9.32-.924c-.503-.224-.7-.728-.475-1.26a2.29 2.29 0 0 0 .252-.531c.532-1.456.14-3.08-1.064-4.003-1.092-.84-2.295-1.008-3.583-.504-.784.308-1.595.588-2.435.7-.14 0-.252.056-.28-.084-.084-.336-.28-.56-.532-.812.028-.056.056-.056.084-.084.812-.448 1.12-1.595.336-2.435-.14-.14-.28-.308-.392-.448a1.952 1.952 0 0 1-.42-1.092c.448 0 .84.224 1.232.476-.028-.532 0-1.036-.028-1.567-.42.252-.784.475-1.232.475.028-.447.224-.811.448-1.175-.364-.084-1.26-.056-1.511.028.14.252.335.476.39.784.029.112.113.252.029.335-.084.084-.223 0-.335-.027-.224-.056-.42-.196-.644-.308-.084-.056-.112-.14-.224-.084v1.51c.392-.223.756-.447 1.175-.475.056.112.028.196 0 .28-.084.308-.223.644-.475.924-.14.14-.308.336-.42.504a1.5 1.5 0 0 0 .336 2.127c.112.056.168.084.28.168-.252.196-.476.42-.504.784-.028.168-.14.196-.28.168a13.017 13.017 0 0 1-2.463-.728c-1.848-.756-3.947.14-4.647 1.988-.364.95-.308 1.903.112 2.827.392.867.224 1.23-.616 1.623-.14.084-.168.168-.112.336a424.395 424.395 0 0 0 2.07 5.263c.057.139.14.223.309.112.028-.028.084-.028.112-.056 3.75-1.484 7.614-1.68 11.505-.616.672.196 1.288.392 1.93.672.197.11.28.056.309-.112.028-.028.028-.084.056-.112.672-1.652 1.288-3.275 1.96-4.9.168-.447.168-.447-.252-.671M125.277 62.373c-.476.028-.896 0-1.316 0h-1.203c-.28 0-.308-.028-.224-.28.392-1.036.784-2.015 1.175-3.05.056-.113.112-.253.28-.253.168 0 .224.112.28.252.392 1.036.784 2.015 1.176 3.051.084.252.084.28-.168.28m3.863 3.387-3.443-8.314c-.084-.223-.196-.279-.42-.279h-2.547c-.392 0-.336-.028-.476.335-1.12 2.716-2.267 5.431-3.387 8.146a.508.508 0 0 0-.084.364h2.099c.196 0 .224-.112.252-.224.168-.504.364-.98.532-1.456.112-.335.112-.335.476-.335h3.583c.364 0 .364 0 .476.335.168.504.364.98.532 1.456.084.112.112.224.251.224h2.212c.028-.112-.028-.168-.056-.252M110.525 71.163c-.084 0-.112-.056-.084-.14.028-.056.028-.112.056-.168.168-.532.364-1.064.532-1.595.056-.084.056-.168.168-.224.252.727.476 1.427.728 2.127h-1.4zm2.771 1.79c-.476-1.37-1.008-2.714-1.483-4.113-.224-.532-.224-.532-.784-.532-.42 0-.336 0-.448.308-.532 1.455-1.064 2.883-1.568 4.338-.14.42-.14.42.308.42.308 0 .308 0 .392-.308.112-.363.252-.727.364-1.091.056-.168.14-.224.308-.224h1.54c.196 0 .252.112.307.252.084.308.224.56.308.84.168.559.168.559.784.503 0 0 .028 0 .084-.028a2.6 2.6 0 0 1-.112-.364zM101.764 71.163h-1.26c.196-.756.448-1.428.7-2.127.084.028.084.056.112.112.224.615.392 1.175.616 1.763.084.252.056.252-.168.252m1.568 1.735c-.504-1.343-.98-2.687-1.456-4.03-.196-.616-.196-.616-.868-.616-.224 0-.308.112-.364.28-.532 1.51-1.091 3.05-1.623 4.562-.028.112-.084.168 0 .28h.336c.336 0 .336 0 .42-.308.112-.363.252-.727.363-1.091.056-.168.14-.224.308-.224h1.484c.196 0 .28.084.336.252.084.308.224.56.308.84.168.559.168.559.784.503.028 0 .056 0 .084-.028 0-.168-.056-.28-.112-.42" fill="#FFF"/>
        <path d="M53.422 13.052c-.14 0-.224-.028-.224-.168 0-.112.056-.168.168-.168.168 0 .308.084.28.224-.028.112-.14.112-.224.112M126.733 30.575c0 .056.028.112.028.168v3.303c0 .224-.084.308-.252.42-4.647 3.33-8.397 7.474-11.393 12.316-.28.448-.531.896-.811 1.4-.056.084-.084.224-.168.308-.112-.056-.14-.168-.252-.28a26.847 26.847 0 0 0-5.99-5.822c-.224-.14-.308-.308-.308-.532V38.02c0-.084-.028-.224.056-.336.112 0 .252.084.363.112 1.848.868 3.555 1.959 5.179 3.19.056.057.112.085.168.14.084.057.14.057.224-.027.112-.14.252-.308.364-.42 2.939-3.443 6.298-6.41 10.189-8.761a29.458 29.458 0 0 1 2.267-1.26c.112 0 .196-.056.336-.084" fill="#FFF"/>
    </g>
</svg>
