<svg width="196" height="84" viewBox="0 0 196 84" xmlns="http://www.w3.org/2000/svg" xmlns:xlink="http://www.w3.org/1999/xlink">
    <defs>
        <path id="ohgqxg71ua" d="M0 0h196v43H0z"/>
    </defs>
    <g fill="none" fill-rule="evenodd">
        <g transform="translate(0 41)">
            <mask id="4ego2l9djb" fill="#fff">
                <use xlink:href="#ohgqxg71ua"/>
            </mask>
            <path d="M194.353 9.923c0-4.566-3.688-8.269-8.235-8.269H9.882c-4.547 0-8.235 3.703-8.235 8.27v23.153c0 4.566 3.688 8.269 8.235 8.269h176.236c4.547 0 8.235-3.703 8.235-8.27V9.924zM186.118 43H9.882C4.424 43 0 38.558 0 33.077V9.923C0 4.443 4.424 0 9.882 0h176.236C191.576 0 196 4.442 196 9.923v23.154c0 5.48-4.424 9.923-9.882 9.923z" fill="#FFF" mask="url(#4ego2l9djb)"/>
        </g>
        <path d="M126.885 65.632c0 3.359-2.68 5.275-6.57 5.275-1.613 0-3.376-.312-5.116-1.058v-4.456c1.57.852 3.57 1.491 5.12 1.491 1.043 0 1.795-.28 1.795-1.142 0-2.227-7.11-1.389-7.11-6.554 0-3.303 2.528-5.28 6.322-5.28 1.55 0 3.099.237 4.65.853v4.396c-1.424-.768-3.232-1.202-4.653-1.202-.98 0-1.59.283-1.59 1.011 0 2.1 7.152 1.101 7.152 6.666zm5.83-.795c0 2.749 2.952 1.893 3.55 1.654v3.798c-.623.342-1.753.618-3.282.618-2.775 0-4.86-2.04-4.86-4.802l.022-14.97 4.566-.969.004 4.052h3.552v3.98h-3.552v6.639zm10.026-5.351v11.087h-4.675V54.218h4.044l.294 1.38c1.095-2.01 3.281-1.602 3.904-1.378v4.29c-.595-.193-2.461-.473-3.567.976zm5.007-10.49 4.695-.996v3.801l-4.695.996v-3.801zm0 21.577h4.695V54.218h-4.695v16.355zm13.669-12.532c-1.073 0-1.747.391-2.234.925l.028 6.933c.455.492 1.109.886 2.206.886 1.73 0 2.89-1.878 2.89-4.39 0-2.441-1.179-4.354-2.89-4.354zm1.09 12.866c-1.637 0-2.637-.688-3.31-1.18l-.01 5.28-4.677.993V54.218h4.118l.243 1.153c.646-.602 1.83-1.463 3.665-1.463 3.285 0 6.378 2.951 6.378 8.384 0 5.93-3.06 8.615-6.407 8.615zm14.7-13.195c-1.17 0-2.469.881-2.469 2.983h4.837c0-2.1-1.22-2.983-2.367-2.983zm6.73 6.428h-9.158c.21 2.187 1.816 2.831 3.64 2.831 1.856 0 3.319-.391 4.594-1.032v3.758c-1.27.704-2.949 1.21-5.184 1.21-4.557 0-7.75-2.846-7.75-8.473 0-4.753 2.708-8.526 7.158-8.526 4.443 0 6.763 3.772 6.763 8.55 0 .453-.041 1.43-.063 1.682zM18.901 57.46H17.22v4.03h1.682c1.284 0 2.185-.813 2.185-2.006 0-1.21-.901-2.023-2.185-2.023zm.311 5.828H17.22v4.273H15v-11.9h4.212c2.429 0 4.162 1.575 4.162 3.823s-1.733 3.804-4.162 3.804zm9.745-2.73c-1.3 0-2.2 1.088-2.2 2.68 0 1.59.9 2.68 2.2 2.68 1.283 0 2.185-1.09 2.185-2.68 0-1.592-.902-2.68-2.185-2.68zm0 7.21c-2.618 0-4.473-1.885-4.473-4.53 0-2.664 1.855-4.531 4.473-4.531s4.457 1.867 4.457 4.53c0 2.646-1.839 4.531-4.457 4.531zm13.56-.207-1.77-5.88-1.75 5.88h-1.994l-2.982-8.648h2.22l1.75 5.88 1.752-5.88h2.01l1.751 5.88 1.751-5.88h2.22l-2.964 8.648h-1.994zm9.761-7.144c-1.074 0-1.906.797-2.01 1.99h3.78c-.07-1.176-.781-1.99-1.77-1.99zm-2.01 3.425c.139 1.315 1.178 2.214 2.635 2.214.797 0 1.682-.294 2.583-.814v1.853c-.988.448-1.977.673-2.947.673-2.618 0-4.455-1.903-4.455-4.6 0-2.61 1.802-4.461 4.282-4.461 2.27 0 3.814 1.781 3.814 4.322 0 .243 0 .519-.035.813h-5.877zm9.9-2.057v5.776h-2.22v-8.648h2.22v.865c.624-.692 1.387-1.071 2.132-1.071.244 0 .486.016.728.085v1.972a2.918 2.918 0 0 0-.78-.103c-.728 0-1.508.397-2.08 1.124zm7.855-1.368c-1.076 0-1.908.797-2.011 1.99h3.779c-.07-1.176-.78-1.99-1.768-1.99zm-2.011 3.425c.138 1.315 1.179 2.214 2.634 2.214.799 0 1.682-.294 2.583-.814v1.853c-.987.448-1.975.673-2.947.673-2.618 0-4.455-1.903-4.455-4.6 0-2.61 1.802-4.461 4.282-4.461 2.272 0 3.813 1.781 3.813 4.322 0 .243 0 .519-.034.813h-5.876zm13.21-2.455c-.502-.52-1.108-.779-1.715-.779-1.267 0-2.133 1.073-2.133 2.63 0 1.556.866 2.627 2.133 2.627.607 0 1.213-.26 1.715-.777v-3.701zm0 5.568c-.675.537-1.438.813-2.2.813-2.307 0-3.918-1.869-3.918-4.53 0-2.664 1.61-4.531 3.917-4.531.763 0 1.526.276 2.201.795v-4.377h2.238v12.436h-2.238v-.606zm12.936-6.347c-.606 0-1.214.26-1.733.779v3.7c.52.518 1.127.778 1.733.778 1.249 0 2.115-1.071 2.115-2.628 0-1.556-.866-2.629-2.115-2.629zm.468 7.16c-.745 0-1.51-.276-2.2-.813v.606h-2.22V55.125h2.22v4.377c.69-.52 1.455-.795 2.2-.795 2.323 0 3.918 1.867 3.918 4.53 0 2.662-1.595 4.531-3.918 4.531zm8.254 3.58h-2.15l1.664-4.099-3.312-8.336h2.272l2.08 5.674 2.098-5.674h2.272l-4.924 12.435z" fill="#FFF"/>
        <path d="M66 32H28a3 3 0 0 1-3-3V3a3 3 0 0 1 3-3h38a3 3 0 0 1 3 3v26a3 3 0 0 1-3 3z" stroke="#FFF" stroke-linecap="square"/>
        <path fill="#FFF" fill-rule="nonzero" d="M42.238 20.8h2.609l1.633-9.576h-2.61zM51.743 15.069c-.912-.443-1.471-.739-1.465-1.187 0-.398.473-.824 1.495-.824a4.72 4.72 0 0 1 2.188.477l.354-2.076a6.739 6.739 0 0 0-2.339-.402c-2.579 0-4.396 1.299-4.411 3.16-.015 1.376 1.297 2.144 2.287 2.602 1.016.469 1.358.769 1.353 1.188-.006.642-.811.935-1.562.935-1.158 0-1.742-.179-2.793-.655l-.366 2.144c.61.267 1.737.499 2.908.511 2.744 0 4.525-1.284 4.545-3.272.007-1.089-.688-1.918-2.194-2.601zM61.007 11.233H58.99c-.625 0-1.092.171-1.367.794l-3.876 8.776h2.741s.448-1.18.55-1.439l3.343.004c.078.335.318 1.435.318 1.435h2.422l-2.114-9.57zm-3.218 6.173a427.55 427.55 0 0 0 1.386-3.591c.353 1.651.009.049.781 3.591h-2.167zM40.049 11.231l-2.556 6.53-.272-1.327-.915-4.401c-.158-.606-.616-.787-1.183-.808h-4.21l-.033.199c1.024.248 1.939.606 2.742 1.05l2.321 8.317 2.762-.003 4.109-9.558h-2.765v.001z"/>
        <g transform="translate(76)">
            <path d="M41 32H3a3 3 0 0 1-3-3V3a3 3 0 0 1 3-3h38a3 3 0 0 1 3 3v26a3 3 0 0 1-3 3z" stroke="#FFF" stroke-linecap="square"/>
            <circle fill="#FFF" fill-rule="nonzero" opacity=".85" cx="17" cy="16" r="8"/>
            <circle fill="#FFF" fill-rule="nonzero" opacity=".5" cx="27" cy="16" r="8"/>
        </g>
        <g>
            <path d="M168 32h-38a3 3 0 0 1-3-3V3a3 3 0 0 1 3-3h38a3 3 0 0 1 3 3v26a3 3 0 0 1-3 3z" stroke="#FFF" stroke-linecap="square"/>
            <path d="M135.533 16.429h2.33l-1.165-2.857-1.165 2.857zM168 11h-5.969l-1.456 1.571L159.264 11h-12.666l-1.165 2.571L144.268 11h-5.096v1.143L138.59 11h-4.368L130 21h5.096l.582-1.571h1.456l.582 1.571h5.678v-1.143l.437 1.143h2.912l.437-1.286V21h11.648l1.456-1.571 1.31 1.571h5.969l-3.785-5L168 11zm-17.617 8.571h-1.602V14l-2.475 5.571h-1.456L142.375 14v5.571h-3.349L138.444 18h-3.494l-.582 1.571h-1.893l3.057-7.143h2.475l2.766 6.714v-6.714h2.766l2.184 4.857 2.038-4.857h2.766v7.143h-.144zm14.414 0h-2.184l-1.893-2.429-2.184 2.429h-6.552v-7.143h6.697l2.038 2.286 2.184-2.286h2.038L161.739 16l3.058 3.571zm-11.211-5.714v1.286h3.64v1.429h-3.64V18h4.077l1.893-2.143-1.747-2h-4.223z" fill="#FFF" fill-rule="nonzero"/>
        </g>
    </g>
</svg>
