<svg xmlns="http://www.w3.org/2000/svg" width="25" height="20" viewBox="0 0 25 20"><g fill="none" fill-rule="evenodd" stroke-linecap="round"><g stroke="#242429" stroke-width="1.5"><g><g><path d="M22.467 19H2.533C1.687 19 1 18.328 1 17.5v-15C1 1.672 1.687 1 2.533 1h19.934C23.313 1 24 1.672 24 2.5v15c0 .828-.687 1.5-1.533 1.5z" transform="translate(-497.000000, -491.000000) translate(182.000000, 316.000000) translate(0.000000, 163.000000) translate(315.000000, 12.000000)"></path><path d="M4 5L12.5 12 21 5M4 14L6 12M21 14L19 12" transform="translate(-497.000000, -491.000000) translate(182.000000, 316.000000) translate(0.000000, 163.000000) translate(315.000000, 12.000000)"></path></g></g></g></g></svg>