<?xml version="1.0" encoding="utf-8"?>
<!-- Generator: Adobe Illustrator 26.0.2, SVG Export Plug-In . SVG Version: 6.00 Build 0)  -->
<svg version="1.1" id="Layer_1" xmlns="http://www.w3.org/2000/svg" xmlns:xlink="http://www.w3.org/1999/xlink" x="0px" y="0px"
	 viewBox="0 0 28 28" style="enable-background:new 0 0 28 28;" xml:space="preserve">
<g>
	<g>
		<path d="M15.3,25c-0.6,0-1.2-0.2-1.6-0.7L4,14.6V6h8.6l9.7,9.7c0.9,0.9,0.9,2.4,0,3.3L17,24.3C16.5,24.8,15.9,25,15.3,25z M6,13.8
			l9.1,9.1c0.1,0.1,0.3,0.1,0.4,0l5.3-5.3c0.1-0.1,0.1-0.3,0-0.4L11.8,8H6V13.8z"/>
	</g>
	<g>
		<polygon points="23,15.4 12.8,5 5,5 5,3 13.6,3 24.4,14 		"/>
	</g>
	<g>
		<path d="M10,15c-1.7,0-3-1.3-3-3s1.3-3,3-3s3,1.3,3,3S11.7,15,10,15z M10,11c-0.6,0-1,0.4-1,1s0.4,1,1,1s1-0.4,1-1S10.6,11,10,11z
			"/>
	</g>
</g>
</svg>
